<?xml version="1.0" encoding="utf-8"?>
<!-- Generator: Adobe Illustrator 14.0.0, SVG Export Plug-In . SVG Version: 6.00 Build 43363)  -->
<!DOCTYPE svg PUBLIC "-//W3C//DTD SVG 1.1//EN" "http://www.w3.org/Graphics/SVG/1.1/DTD/svg11.dtd">
<svg version="1.1" id="Layer_1" xmlns="http://www.w3.org/2000/svg" xmlns:xlink="http://www.w3.org/1999/xlink" x="0px" y="0px"
	 width="5584.25px" height="2834.65px" viewBox="0 0 5584.25 2834.65" enable-background="new 0 0 5584.25 2834.65"
	 xml:space="preserve">
<line fill="none" stroke="#000000" x1="1872.667" y1="1555.641" x2="3231.641" y2="401.795"/>
<polyline fill="none" stroke="#000000" points="2516.256,1630 2685.487,609.487 1813.692,1247.949 "/>
<polyline fill="none" stroke="#000000" points="1662.41,1091.538 3182.923,1153.077 2231.641,522.308 "/>
<line fill="none" stroke="#000000" x1="1985.487" y1="837.692" x2="3034.205" y2="1327.436"/>
<path fill="none" stroke="#000000" d="M2182.923,1704.359c-2.564-10.257-225.641-1143.59-225.641-1143.59"/>
<line fill="none" stroke="#000000" x1="3006" y1="371.025" x2="3006" y2="1555.641"/>
<line fill="none" stroke="#000000" x1="1890.615" y1="506.923" x2="3167.538" y2="704.359"/>
<line fill="none" stroke="#000000" x1="1813.692" y1="1373.59" x2="2823.948" y2="327.436"/>
<path fill="none" stroke="#000000" d="M1834.205,704.359c12.82,10.256,1315.385,797.436,1315.385,797.436"/>
<line fill="none" stroke="#000000" x1="2136.769" y1="401.795" x2="2318.82" y2="1630"/>
<line fill="none" stroke="#000000" x1="2844.461" y1="473.589" x2="2716.256" y2="1460.77"/>
</svg>
