<?xml version="1.0" encoding="utf-8"?>
<!-- Generator: Adobe Illustrator 14.0.0, SVG Export Plug-In . SVG Version: 6.00 Build 43363)  -->
<!DOCTYPE svg PUBLIC "-//W3C//DTD SVG 1.1//EN" "http://www.w3.org/Graphics/SVG/1.1/DTD/svg11.dtd">
<svg version="1.1" id="Layer_1" xmlns="http://www.w3.org/2000/svg" xmlns:xlink="http://www.w3.org/1999/xlink" x="0px" y="0px"
	 width="841.89px" height="595.28px" viewBox="0 0 841.89 595.28" enable-background="new 0 0 841.89 595.28" xml:space="preserve">
<polygon points="699.275,298.081 699.275,299.28 699.275,298.081 "/>
<polygon points="675.035,374.881 678.405,381.121 673.605,376.561 665.195,387.601 673.845,394.801 675.525,394.801 
	670.235,402.721 669.765,405.601 670.964,406.801 663.765,418.081 666.885,413.28 672.155,396.721 663.765,389.521 656.075,396.48 
	661.845,387.841 659.195,381.121 663.275,385.921 667.605,380.4 671.925,374.881 667.845,371.041 665.685,374.881 660.885,377.761 
	658.725,379.681 664.235,373.921 666.645,369.36 666.405,366.721 669.995,367.44 669.275,369.36 672.885,373.44 675.765,374.4 
	675.035,374.881 "/>
<polygon points="672.885,139.201 676.964,137.041 669.765,142.561 661.365,147.121 642.405,154.321 641.195,155.521 
	637.115,155.761 644.325,148.561 661.605,137.521 670.964,132.721 672.885,133.44 645.525,150.241 666.645,142.561 672.885,139.201 
	"/>
<path d="M673.115-54.719l1.21,1.68l-4.33,3.84l2.891,11.28l-2.65-4.56l-1.91-5.28l-9.36,12.96l1.44-6.48l-1.21-4.8l-0.96,1.2
	l-4.31-1.44l-3.601-0.72l8.64,0.72l-1.689-11.04l-7.43,9.36h-1.2l1.68-4.8l5.75-6.24l0.25-1.68l7.44-8.64l1.199,0.24l4.311,17.76
	L673.115-54.719L673.115-54.719z M662.075-43.679l5.53-6.48l-3.84-15.6l-0.73-0.24l-4.31,5.52L662.075-43.679L662.075-43.679z"/>
<polygon points="671.685,492.001 670.964,496.561 669.525,491.041 667.115,474.001 665.925,471.121 664.964,464.641 659.685,437.28 
	660.885,430.801 662.565,432.721 661.605,434.641 665.445,460.32 666.885,464.16 667.605,469.921 669.035,473.521 669.765,479.761 
	671.685,492.001 "/>
<polygon points="669.035,-113.04 670.235,-107.279 664.725,-116.639 662.325,-119.759 665.195,-118.319 669.035,-113.04 "/>
<path d="M667.365,67.681l2.87,5.28l-3.12-1.44v-1.2l-8.15-12.72l-3.6-16.56l-5.04-8.64l-5.05,4.56l0.72,1.92l-6.47,12.96l1.92-6.24
	l1.92-6.72l-3.13-3.36l-8.87-8.16l-6.25,9.12l9.37,9.6l6,9.12l10.79,15.6l5.29,7.92l-0.96,2.64l-20.88-31.92l-16.32-1.68l-0.96,8.16
	l-1.68-1.68l1.68-1.44l-0.72-5.04l-20.4-1.68V44.4h3.12l6-9.6l9.36-7.44l-7.2-17.28l-13.68,7.2l-9.36,8.88l-2.41,3.12l-4.79,5.28
	l-0.479-0.72l3.35-4.08l6.729-7.68l4.801-6l-7.2-2.16l-4.57,3.6l-4.069,4.56l-5.04,2.64l1.68-1.68l11.28-11.28l4.31,0.72l6.49,2.4
	l2.39-2.4l9.61-4.8l-1.45-3.84h-1.67V2.4l-12.96-2.88l-4.57-2.4l0.73-0.72l16.08,3.6l-4.811-9.6h-1.43l-13.2-5.76l-0.25-1.2
	l-3.59-2.64l-5.29-3.84l9.37,4.56l13.43,6.48l-2.88-11.76l-1.19-6.96l2.881,7.2l7.43,21.36l1.689,0.48l1.921,5.76L608.325,6
	l-0.479,0.96l8.149,15.36l7.69,13.2l6.47-8.88l-4.79-3.36l0.71-2.64l18,16.08l1.69-3.12l-12.24-18.72l-1.2-0.96l0.24-3.12
	l6.96,12.72l7.2,8.88l6.239-4.08l-12.479-12.48l-4.56-5.76l6.72,5.04l2.63,1.2l-2.63-6.24L642.155,6l5.29,10.32l-0.72,1.2l7.68,8.64
	l2.4-1.2l-1.44,3.12l-0.25,3.12l-1.43-1.2l-1.45,1.2l5.04,12.24l6.72,19.92L667.365,67.681L667.365,67.681z M632.325,48l0.48-0.96
	l-10.57-9.6l-4.79,4.56l0.48,3.84L632.325,48L632.325,48z M620.565,36.48l-5.53-6.96l-12.47,15.36l13.67,0.72l-0.71-4.32
	L620.565,36.48L620.565,36.48z"/>
<polygon points="670.235,661.921 665.925,661.921 661.605,660.721 648.405,656.881 648.405,654.721 630.885,642.001 
	626.325,634.801 613.115,636.961 601.365,633.36 595.845,633.121 606.885,631.44 610.964,631.2 614.805,635.28 629.925,632.4 
	627.995,635.041 631.115,639.601 650.075,654.001 650.075,656.16 663.765,659.521 670.235,661.921 "/>
<polygon points="667.605,330.48 668.325,331.681 659.445,348.001 657.035,350.641 647.195,366.24 647.195,373.2 650.565,380.4 
	651.275,388.561 648.885,383.28 645.765,375.841 638.325,388.801 640.725,379.921 642.645,375.841 644.075,367.44 660.885,340.561 
	667.605,330.48 "/>
<polygon points="665.925,-112.799 661.845,-108.239 665.925,-98.639 664.235,-99.839 655.845,-97.679 649.365,-106.08 
	646.485,-102.719 653.685,-94.56 650.075,-97.199 646.485,-100.319 642.885,-100.799 643.845,-102.959 639.995,-106.56 
	645.035,-95.04 643.605,-94.319 638.325,-104.639 637.115,-113.279 641.195,-108 644.805,-104.399 647.925,-107.759 
	644.565,-112.56 642.885,-117.6 646.964,-112.08 648.885,-109.679 650.565,-112.319 656.805,-120.239 658.235,-120 
	655.365,-115.439 650.325,-108 656.325,-100.319 663.275,-101.759 660.155,-107.52 654.405,-106.319 654.405,-107.04 
	658.964,-109.199 656.325,-115.439 660.885,-110.159 665.925,-112.799 "/>
<polygon points="663.525,418.801 655.845,416.881 647.685,414.24 644.075,435.121 644.565,441.841 642.645,468.24 643.605,467.761 
	639.275,470.4 640.725,469.921 642.645,438.48 642.155,432.48 645.765,414.001 633.765,408.961 634.235,427.921 632.565,421.681 
	631.845,408.001 633.035,398.641 633.765,406.081 645.525,411.841 645.035,391.681 645.765,391.44 646.485,391.681 647.445,412.081 
	663.525,418.801 "/>
<polygon points="660.405,114.96 657.035,119.761 652.235,125.041 659.685,129.841 660.885,133.201 658.235,132.96 652.964,137.041 
	648.155,138.48 641.445,144.48 638.325,147.841 634.725,150.48 634.235,150.241 636.155,147.361 641.445,142.321 647.925,135.841 
	656.805,131.521 654.885,129.361 640.485,141.841 635.925,144.48 631.845,147.361 639.275,140.4 653.445,128.161 650.805,126.48 
	649.605,126.96 639.275,127.201 639.035,124.801 650.565,123.841 659.685,114.96 660.405,114.96 "/>
<polygon points="661.365,32.641 659.195,33.121 655.845,10.801 656.325,9.841 657.035,9.841 661.365,32.641 "/>
<polygon points="655.605,462.48 654.155,468.961 651.275,486.961 649.845,490.081 651.035,480.721 654.645,462.48 655.605,462.48 
	"/>
<polygon points="651.765,523.921 652.964,523.921 649.845,538.081 648.645,545.761 645.765,551.521 646.964,545.28 651.765,523.921 
	"/>
<polygon points="651.995,211.44 651.995,228.241 651.995,232.321 650.805,241.681 650.565,236.4 650.565,211.681 651.995,211.44 "/>
<polygon points="645.275,218.4 648.645,236.4 645.995,241.681 646.725,235.44 643.605,219.601 644.565,218.4 645.275,218.4 "/>
<polygon points="648.155,509.761 645.525,521.761 641.445,528.961 645.995,510.001 643.605,505.2 641.685,502.32 643.605,491.041 
	644.325,491.041 643.605,501.36 645.525,504.48 648.155,509.761 "/>
<polygon points="646.485,310.32 645.035,320.4 644.075,339.841 642.645,340.32 630.405,353.041 628.964,352.081 627.995,358.32 
	625.365,356.641 626.325,352.561 623.195,330.48 618.645,322.561 615.995,314.641 612.645,307.921 615.995,307.681 615.765,309.36 
	620.565,321.841 625.845,328.561 625.845,330.48 627.275,333.36 627.525,336.48 628.725,340.561 628.964,351.601 641.925,338.641 
	642.645,320.641 643.605,306.24 639.035,297.361 634.964,290.161 633.995,284.161 634.964,286.561 644.075,301.44 645.995,306.24 
	646.485,310.32 "/>
<path d="M643.365-52.799l4.561,3.84l-6.73-3.12l-3.59-3.6l-7.92-4.08l-5.04-1.68l1.2,2.16l-0.73,1.68l4.57,12.96l3.12-0.72
	l-0.96,3.12l-7.69,6.96l-1.67,2.16l2.16,2.4l4.08,9.6l-1.45,0.72l-0.95-2.88l-5.29-8.64l-1.43-0.24l-20.41-22.8l-6.47,4.08
	l4.55-5.52l-4.311-4.08l-0.729,12.96l-1.91-2.16v-6l0.48-5.76l-8.16-6.24l-2.65-0.24l0.24-3.36l10.57,6.96l-0.48-17.76l-4.8,5.52
	l-2.41-0.24l1.21-3.12l4.08-3.36l3.12-4.56v-7.92l1.92-3.84l2.63-7.44l-5.75-4.8l-5.05-5.28l5.76,3.6l5.53,4.32l2.399-2.88
	l-8.399-5.28l-2.64-3.12l7.92,4.32l8.149,4.56l-3.35-10.08l2.16,2.64l3.6,7.44v1.2l11.04,4.8l7.2,2.64l1.68-0.48l7.44,10.08
	l2.64,5.04l-4.56-4.08l-4.08-5.04l2.16,21.84l1.68-0.24l6.24,5.52l4.56-0.72l-4.56,2.88l-1.69,6.48l-1.92-2.64l1.69-2.64l-1.44-1.92
	l0.24-0.72l-4.08-4.08l-2.16,0.24l-1.45-7.2l-1.67-0.24l-8.64-7.68l0.96,20.64l7.68,5.52l5.04,1.68L643.365-52.799L643.365-52.799z
	 M626.805-82.799l-2.16-18.96l-6.49-1.2l-1.19,3.6l6.23,6.24l-0.96,0.72l-6-5.04l0.49,7.92l1.2-0.96L626.805-82.799L626.805-82.799z
	 M627.525-45.359l-3.84-11.76l-5.53,1.2l1.45,8.64L627.525-45.359L627.525-45.359z M622.964-60l-0.479-2.88l-4.8-2.88v7.92
	L622.964-60L622.964-60z M620.805-34.319l8.159-8.16l-19.439-4.08L620.805-34.319L620.805-34.319z M617.445-47.759l-1.21-6.72
	l-6.96,1.92l6.72-3.84l-0.229-4.32l-15.36,4.08l7.2,8.16L617.445-47.759L617.445-47.759z M615.765-69.359l-1.44-21.12l-7.68-0.24
	l6.72,14.4l-5.52-5.52l-2.881-7.92l-7.93-0.72l1.2,5.04L615.765-69.359L615.765-69.359z M615.765-62.639v-4.8l-20.88-20.88
	l-2.16,25.2l5.76,5.04L615.765-62.639L615.765-62.639z M615.275-100.08l0.72-3.36l-10.069-4.32l-1.931,4.08l10.811,2.88
	L615.275-100.08L615.275-100.08z M613.845-92.639l0.479-5.28l-8.17-2.16v6.96L613.845-92.639L613.845-92.639z M604.235-92.159
	l-0.71-9.36l-1.92,4.08l-3.12,4.32L604.235-92.159L604.235-92.159z M602.075-105.119l1.92-4.08l-5.51,1.44L602.075-105.119
	L602.075-105.119z M593.685-90.959l7.92-11.76l-4.08-3.12l-4.08,9.6L593.685-90.959L593.685-90.959z"/>
<path d="M648.405,112.321l-8.64,7.2l-10.801,12.72l-6.239,3.6l-4.32,2.4l2.63-3.84l10.08-6l6.73-6.72l-26.4,15.36l-2.88-2.4
	l3.36-2.88l14.149-11.28l-4.31-9.12l-21.12-0.72l7.68-1.2h12.95l-5.75-16.08h2.16l10.08,26.16l6.229,1.68L648.405,112.321
	L648.405,112.321z M631.605,122.161l-2.641-0.96l-1.199,1.92l-1.69-0.48l-12,10.08L631.605,122.161L631.605,122.161z"/>
<polygon points="637.365,501.36 641.445,512.641 639.525,519.601 636.645,525.601 639.275,508.801 635.685,502.32 638.805,490.081 
	639.525,490.32 637.365,501.36 "/>
<polygon points="641.925,233.521 630.405,232.321 625.115,233.041 624.885,235.201 621.275,240 619.365,244.561 619.605,238.561 
	622.485,234.48 619.365,221.761 615.525,226.561 615.765,230.881 613.845,238.561 613.605,231.601 613.365,227.041 618.155,219.601 
	613.845,210 619.605,217.92 627.995,214.321 620.805,219.841 625.115,230.4 625.605,230.641 633.275,231.121 641.925,233.521 "/>
<polygon points="639.765,166.081 624.885,182.161 622.235,186.241 623.445,182.161 624.885,177.361 628.964,167.041 
	626.805,163.201 623.685,149.041 624.155,148.321 624.885,148.321 630.405,165.601 631.845,164.161 639.765,166.081 "/>
<polygon points="639.035,426.24 638.565,431.521 635.685,449.761 636.155,458.641 637.365,462.48 633.995,454.32 635.925,438.721 
	638.325,426.24 638.565,426.24 639.035,426.24 "/>
<polygon points="636.885,-105.359 635.925,-104.639 632.565,-108.959 634.235,-110.879 636.885,-105.359 "/>
<polygon points="634.725,550.32 636.155,552.721 630.405,541.44 616.235,537.36 623.925,539.28 629.195,539.521 634.235,526.561 
	636.155,526.32 631.845,539.28 632.805,541.2 634.725,550.32 "/>
<polygon points="623.685,361.681 635.445,367.2 629.445,364.32 621.995,362.641 620.075,362.16 623.685,361.681 "/>
<polygon points="635.685,-94.08 632.565,-97.199 629.925,-103.919 635.685,-94.08 "/>
<polygon points="635.445,-99.839 632.075,-102.719 631.115,-107.04 635.445,-99.839 "/>
<polygon points="634.485,368.881 633.035,370.081 632.565,371.521 627.035,376.801 621.525,381.601 625.845,376.32 632.565,368.4 
	634.485,368.881 "/>
<polygon points="633.275,-25.199 633.035,-21.119 627.035,-37.439 627.275,-38.399 628.725,-38.639 633.275,-25.199 "/>
<polygon points="622.485,278.881 628.964,272.641 623.925,280.801 624.885,287.521 622.485,282.721 619.115,283.681 
	621.035,281.041 604.725,260.881 599.685,253.92 600.405,253.44 622.485,278.881 "/>
<polygon points="622.235,570.24 622.725,567.841 615.275,556.801 601.365,548.641 610.235,539.041 607.115,531.121 608.325,530.4 
	610.964,536.16 612.405,539.28 607.845,543.121 603.765,547.44 611.445,550.801 620.805,561.36 622.235,570.24 "/>
<polygon points="619.365,300.721 618.885,303.121 615.765,299.28 612.885,295.201 610.235,284.161 604.235,272.641 597.035,262.321 
	593.685,258.96 594.155,258 594.885,258 609.525,277.681 612.405,284.161 614.565,293.761 619.365,300.721 "/>
<polygon points="615.765,240.96 618.155,242.161 610.235,243.121 603.525,242.161 615.525,241.44 615.525,240.721 615.765,240.96 
	"/>
<polygon points="615.275,-29.52 616.725,-29.279 610.964,-17.759 616.235,-7.919 614.075,-10.08 610.235,-15.6 609.035,-17.04 
	613.605,-24 615.275,-29.52 "/>
<polygon points="614.075,408.48 615.275,417.601 612.405,409.44 612.155,405.36 610.235,402.721 609.995,400.32 609.765,395.761 
	611.925,401.521 614.075,405.121 614.075,408.48 "/>
<polygon points="615.275,-4.56 613.845,-3.359 612.405,-5.04 610.485,-6.719 609.765,-6.239 609.525,-7.439 604.964,-8.639 
	603.525,-11.759 604.485,-12.239 615.275,-4.56 "/>
<polygon points="614.325,474.961 607.845,472.081 603.765,470.4 603.275,468.721 596.075,477.841 594.405,476.881 600.405,469.44 
	603.275,462.721 602.325,457.921 602.805,447.601 603.995,438.961 605.685,440.4 604.485,446.641 603.765,457.44 604.964,462.24 
	604.964,468.001 611.685,474.001 614.325,474.961 "/>
<polygon points="611.685,24.241 612.885,24.721 607.845,28.081 601.115,29.761 592.725,34.321 579.995,42.96 578.805,41.281 
	596.325,30.241 601.605,27.361 611.685,24.241 "/>
<polygon points="611.685,303.601 613.605,305.041 608.565,311.761 604.235,319.2 606.885,343.2 604.725,345.601 597.275,358.561 
	597.525,360.48 597.275,416.641 597.035,425.28 597.275,432.24 595.115,426.961 594.645,420.001 594.405,395.761 593.685,373.2 
	595.115,361.2 594.645,358.801 597.275,354.721 600.405,348.48 604.485,340.32 602.325,317.761 592.485,309.601 590.075,306.48 
	596.565,310.801 603.035,315.601 611.685,303.601 "/>
<polygon points="611.685,148.561 611.445,164.4 607.605,173.761 604.725,171.361 605.925,170.881 610.235,158.161 609.765,146.641 
	611.445,146.4 611.685,148.561 "/>
<polygon points="611.685,389.761 609.995,392.4 598.725,408.48 599.925,403.681 610.485,389.761 611.685,389.761 "/>
<polygon points="607.845,76.081 611.195,86.4 606.155,77.281 599.685,70.801 597.275,57.121 598.725,56.881 601.605,69.841 
	607.845,76.081 "/>
<path d="M606.405,585.36l-4.33,3.84l-15.84,22.561l-4.79-0.72l-0.72-1.92l-28.8-14.641l-2.891-1.439l5.771,0.239l4.8,2.4l9.12,5.28
	l14.64-4.561l5.28-17.279l-27.12,3.359l-17.29,11.28l-4.31,1.92l4.069-4.08l14.891-9.36l-3.851-1.92l-17.51,5.521l-4.8,0.72
	l3.35-3.36l-0.47-11.76l3.59-3.359l-0.23-21.36l3.601-10.561l-1.68,33.36l-2.891,2.4l0.49,10.319l17.51-4.56l1.2,1.68l4.57,0.96
	l4.08,1.44l6.479-1.44l12.71-2.88l5.53-2.16l-3.37-5.279l-3.12-5.04l2.41-0.721l-1.21-0.479l6.96-8.88l1.92-10.08l-1.67-11.76
	l1.2-4.561l0.47,2.4l1.92,15.84l-1.92,8.64l-7.92,10.32l5.76,7.92l1.69-1.2l0.24-2.399l2.399-4.08l3.12-9.601v3.601l-3.84,10.56
	l-0.49,3.36l-2.15,0.479l3.841,2.16l-5.53,1.92l-6.24,17.04L606.405,585.36L606.405,585.36z M585.995,609.36l12.73-18.479
	l-13.69,6.72l-1.92,10.32L585.995,609.36L585.995,609.36z M581.445,606.961l1.44-8.16l-10.32,4.08L581.445,606.961L581.445,606.961z
	"/>
<polygon points="600.155,-46.799 599.445,-43.199 585.995,-36.719 590.325,-24.239 591.035,-20.399 587.445,-27.839 
	584.325,-35.759 575.195,-31.679 570.885,-29.279 576.155,-34.319 583.605,-37.679 578.805,-54.719 578.075,-59.759 
	579.035,-59.759 585.275,-38.639 598.235,-44.399 600.155,-46.799 "/>
<polygon points="599.685,287.041 597.525,291.601 590.805,304.081 568.235,328.561 567.035,328.801 564.885,336.721 564.405,341.28 
	562.235,346.32 560.805,351.841 555.765,362.881 554.565,365.761 555.525,359.041 562.235,340.801 562.485,337.921 564.885,331.2 
	566.325,324.24 565.605,322.561 581.195,294.721 580.235,292.561 586.964,294 590.075,291.361 593.445,281.041 581.925,264 
	570.885,246.721 571.365,245.761 571.845,245.761 583.115,262.081 594.155,278.4 598.235,272.4 596.565,282 594.645,286.081 
	592.235,289.44 591.995,292.321 589.605,294.241 589.365,296.641 584.075,294.96 568.485,318.721 568.485,324.001 583.845,307.681 
	589.115,302.4 596.075,289.44 599.685,287.041 "/>
<polygon points="597.035,130.321 599.445,132 594.645,128.881 589.115,120.241 586.485,111.361 570.645,119.041 571.365,120.96 
	568.725,122.641 567.035,121.44 585.275,109.44 575.925,97.92 577.365,97.201 579.765,102.48 586.485,107.521 593.685,101.761 
	587.925,109.44 591.525,115.44 591.275,119.521 593.685,122.641 593.925,125.041 597.035,130.321 "/>
<path d="M593.445,146.4l4.79-3.84l-7.43,9.36h-1.69l-2.15-1.92l-2.89-0.48l-5.27-1.68l-7.44,1.68l-3.84,1.92l-9.84,4.32l7.68,18.72
	l-1.68,0.24l-7.45,8.16l0.25,2.4l-15.12,16.56l4.08-7.2l8.88-9.84v-2.4l7.2-8.16l1.67,0.24l-4.55-9.6l-1.45-0.72l-4.55-4.56
	l-6.24-2.4l-7.68,0.24h-9.61l-18.96,22.8l5.29,1.2l6.48,1.44l5.76,5.76l10.08-12l4.08-6l7.43-12.48l-1.91,6.72l-8.4,12.72
	l-3.85,6.48l-4.79,4.08l-4.09,4.56l0.729-2.64l-5.279-5.28l-15.12-1.92l-0.72-2.4l-5.771-2.4l7.69,1.44l18.72-21.84l-17.29,0.24
	l-14.63-1.44l-23.04,1.2l-0.25,7.68l18.96,11.76l5.29,3.12l4.32,3.6l-7.2-3.6l-7.45-3.6l-13.92-8.4l-3.35,23.52l-2.16,15.6v-8.4
	l0.47-8.16l2.88-23.04l-1.67-3.36l2.16,0.24l-4.08-17.52l-9.6-2.4l-0.961,5.76l12,23.76l-4.81-6.48l-7.43-13.92l-1.45,9.84
	l-0.95-4.56l1.44-12.48l-1.92-0.48l-7.44-14.88l-0.96-4.32l2.88,4.32l7.2,14.16l4.32-57.36l0.72-0.72l-0.72-5.28l-5.771-20.88
	l-16.08-7.92L428.805,54l-4.811-0.24l16.08-1.92l10.811,5.52l2.64-1.44l3.36-7.92l-4.08-12.24l5.04-5.04l0.479-1.92l2.87-2.88
	l11.53-18.24l-0.49-1.92l2.41-0.72l-8.41,15.84l2.65,4.32l7.439,21.12l-0.25,5.76l-6.47-24.48l-4.8-4.32l-3.841,6.24l2.641,7.92
	l0.72-11.04l2.4-0.24l-1.45,8.4l0.96,6.72l-0.47,2.4l0.96,11.52l-2.88-8.64l-4.57-14.4l-1.91,10.08l1.2,5.52l3.12,3.6l2.16,5.28
	l0.96,5.28l-2.4-4.56l-2.17-4.8l-2.16-2.4l-4.8,9.12l6.49,24v8.16l-3.84,50.64l3.6,1.44l7.67,2.4l3.61,9.36l10.31,1.2v-21.36
	l-1.67-5.52l1.44-4.56l0.479,4.56l1.44,4.8l0.229,21.6l18.73-0.96l-6.96-6.72l0.72-1.68l10.08,7.68l5.51,1.92l17.04-0.96l4.57-8.64
	l-9.36-12.48l-4.33-6.72l-12.229-7.2l-19.69,4.8l-3.35,1.68l5.04-3.84l16.56-4.08l-11.76-5.76l-4.33-2.64l18.49,7.92l9.12,0.96
	l-7.44,0.48l9.36,6l9.6,5.76l19.92,10.56l4.79-15.84l-6.71,2.4l-2.17,2.64l-5.75,2.64h-4.33l-0.229-2.16l3.6,0.24l5.04-2.16
	l2.399-2.64l6.23-3.36l2.65,0.24l2.149-7.2l-6.96-0.48l-7.189,0.48l-15.36,3.6l-9.6,1.68l3.35-1.44l8.88-2.16l12.25-3.36l10.561-1.2
	l-6.961-3.36l-5.52-3.12l-10.33,1.92l-14.15,1.92l3.36-1.68l20.4-4.08l7.2,3.6l12.479,5.52l-2.64,10.08l2.64-0.72l17.521,10.8
	l4.8,11.52l8.39,2.88L593.445,146.4L593.445,146.4z M578.565,145.681l-3.601-8.88l-16.56-10.32l-0.479,0.48l-3.12-0.24l-4.811,14.4
	l6.73,12.48L578.565,145.681L578.565,145.681z M557.195,160.561l-1.43-3.84l-3.12,0.24L557.195,160.561L557.195,160.561z
	 M545.685,151.92l9.35,2.64l-4.07-9.36l-2.64,0.24l-0.72-1.68l-23.53-13.2l-0.71,0.24l11.04,13.44l2.16-0.96L545.685,151.92
	L545.685,151.92z M546.155,155.041l-11.27-9.12l-3.851,8.88L546.155,155.041L546.155,155.041z"/>
<polygon points="596.565,197.281 597.275,201.841 593.925,195.121 591.275,187.92 584.565,171.121 586.235,169.201 591.035,183.601 
	595.115,192.241 596.565,197.281 "/>
<polygon points="590.075,186.241 590.325,188.881 588.645,189.601 580.725,197.521 572.805,206.881 571.115,210.241 
	573.995,204.241 567.995,194.161 569.925,194.161 575.195,202.081 588.645,186.241 590.075,186.241 "/>
<polygon points="591.275,367.2 583.115,368.4 565.365,366.48 559.365,364.561 559.605,362.641 566.325,365.041 591.275,367.2 "/>
<polygon points="576.405,66.241 580.725,76.321 578.565,92.161 576.885,91.44 575.925,92.641 574.725,90.96 567.035,84 
	563.445,73.201 558.155,61.44 556.235,61.44 559.845,59.281 565.365,73.92 567.525,58.561 566.805,58.081 570.645,56.161 
	569.445,58.561 568.725,67.201 567.765,73.92 566.075,78.721 568.235,83.041 576.155,90.241 576.645,88.321 577.845,88.561 
	577.845,69.361 576.405,66.241 "/>
<polygon points="578.565,395.761 576.645,399.841 567.275,410.641 560.075,414.001 562.235,413.041 573.525,401.041 561.765,398.16 
	558.645,401.521 558.645,406.081 556.964,403.44 550.964,409.44 555.525,401.521 549.995,387.36 552.645,392.4 556.964,399.601 
	573.035,382.081 573.995,382.081 571.605,386.881 562.725,396.961 574.725,399.36 578.565,395.761 "/>
<polygon points="578.075,463.2 578.075,467.28 574.964,459.841 570.885,453.601 557.195,426.48 553.845,419.761 554.565,419.761 
	556.235,423.601 558.885,425.521 563.445,432.48 566.805,438.961 571.845,450.961 578.075,463.2 "/>
<polygon points="575.925,-14.639 577.115,-10.799 574.964,-13.199 568.485,-17.759 550.964,-31.199 537.765,-45.119 
	525.525,-55.199 521.445,-57.119 517.845,-73.199 513.275,-78 506.565,-85.199 507.525,-86.399 513.525,-80.639 520.235,-73.439 
	523.605,-57.6 523.605,-59.759 525.035,-63.6 532.485,-73.439 533.445,-75.839 542.075,-89.04 542.325,-89.759 543.765,-89.52 
	535.115,-75.359 533.925,-72.479 525.525,-58.319 524.075,-57.839 542.325,-43.199 556.485,-28.56 562.485,-23.52 571.115,-17.279 
	575.925,-14.639 "/>
<polygon points="573.525,618.24 577.365,621.841 573.995,620.4 563.195,611.041 559.845,608.641 559.115,606.48 547.115,601.921 
	560.565,604.801 561.525,607.2 568.725,615.121 573.525,618.24 "/>
<polygon points="569.925,-9.839 574.235,-5.759 549.995,-22.799 550.485,-24.719 550.964,-24.479 569.445,-10.56 569.925,-9.839 "/>
<polygon points="574.485,470.4 571.115,466.32 568.725,459.121 562.235,451.44 557.685,441.841 549.275,421.681 549.525,421.44 
	550.235,421.44 552.645,427.44 560.325,444.24 564.405,451.2 571.365,459.601 572.805,465.36 574.485,470.4 "/>
<polygon points="573.275,-60.719 573.035,-53.04 573.035,-41.759 571.605,-37.439 571.365,-41.04 571.845,-59.759 572.565,-60.719 
	573.275,-60.719 "/>
<polygon points="564.645,-120.479 571.845,-97.439 564.885,-116.879 557.685,-105.839 549.035,-103.199 552.405,-92.159 
	551.445,-88.799 550.235,-93.839 546.645,-103.919 556.964,-107.759 563.925,-120.479 564.645,-120.479 "/>
<polygon points="572.325,175.681 566.565,182.881 560.075,189.361 559.845,203.761 557.445,202.801 557.925,200.4 557.925,189.121 
	560.325,186 565.845,180.96 572.325,175.681 "/>
<polygon points="566.325,-72.719 570.155,-66 568.485,-67.919 561.275,-74.879 560.805,-62.639 560.075,-56.159 559.605,-60.959 
	559.365,-64.08 559.605,-76.799 553.605,-83.759 551.195,-87.839 559.605,-79.679 558.885,-86.639 559.115,-90.719 560.805,-78.719 
	566.325,-72.719 "/>
<path d="M568.964,235.44l-1.439,3.36l-0.72-1.92h-5.04l-2.4,2.16l-1.92,0.72l-5.76,1.68l-6-0.96l-15.36,0.24l-2.399,9.6l8.88,14.64
	l12.229-8.16l-9.35-11.04l-2.16-3.6l12,12l3.59,4.56l-3.12-0.24l-10.31,7.68l-4.08,1.92l-1.68-4.56l-6.48-7.44l-0.25-0.24v0.24
	l-0.47-0.48l-15.12,7.44l4.55-4.08l10.08-5.52l-1.67-5.04l2.16-1.92l-16.08,11.76l1.2,0.96l-5.28,12.24l15.12-4.56l5.04-0.96
	l2.88,0.72l4.08,0.24l-2.41,2.88l-0.47-1.2l-24.73,5.52l-0.71,1.44l-1.68-2.4l6-13.2l-1.45-1.2l17.29-14.16l1.67,0.48l0.49-4.08
	l-21.61-0.48l3.12-1.68l19.21-0.24l0.96-13.92l-3.13-6.72l-0.24-4.32l-7.189,9.12l-8.88,8.64l-3.36,6.48l-2.88,3.6l3.35,9.6
	l16.811-7.68l-6.24,4.08l-7.45,3.36l-0.47,1.92l-1.92-0.48l-6.96,10.08l4.56-9.84l-2.64-6.48l-6,1.44l-4.57,6l-3.83,6l0.24-3.36
	l8.399-11.28l-9.119-1.44l-4.57,5.04l-5.04,3.6l3.61-4.8l3.119-4.08l-8.399-2.4l-2.64,0.72l-3.36-5.28l-6.96-7.44l-2.16-2.16l6,4.32
	l6.24,7.2l12.47,2.88l10.81-7.92l0.23-2.16l5.77,0.72l-2.64,2.16l2.4,4.8l4.08-5.28l-0.96-13.2l-1.92-1.44l1.68-1.2l-1.45-19.2
	l2.88,5.04l0.73,13.68l14.39-2.4l7.69-12.24l2.88-3.6l-6.24,13.92l1.92,2.16l3.12,9.84v2.4l-0.72,11.28l27.35-0.72L568.964,235.44
	L568.964,235.44z M517.845,220.321l2.149-3.6l-12.229,2.64l0.229,11.04L517.845,220.321L517.845,220.321z M499.115,242.881l2.16-2.4
	l-3.12-5.52l-7.19,4.32l-1.439,2.16L499.115,242.881L499.115,242.881z"/>
<polygon points="568.725,248.161 567.035,249.121 557.925,266.881 558.885,268.321 557.685,269.761 559.115,274.801 558.405,276 
	559.115,288.96 547.605,325.2 542.075,337.681 539.195,340.801 539.925,337.44 538.235,336.001 530.805,324.24 536.075,329.28 
	540.645,335.28 542.565,331.44 535.605,321.36 532.725,313.921 534.645,316.32 543.525,328.801 556.235,279.121 552.885,285.841 
	550.485,293.281 550.964,304.801 543.995,325.2 541.845,325.2 547.845,311.041 548.805,297.361 548.325,293.761 551.925,283.92 
	554.075,279.361 555.525,271.92 540.645,285.361 538.485,284.641 538.964,285.601 537.765,284.4 534.155,285.601 526.964,287.761 
	519.275,289.44 515.925,291.121 528.155,285.361 537.275,282 535.365,277.681 539.925,282.721 555.525,269.281 564.155,250.561 
	568.725,248.161 "/>
<polygon points="567.525,-65.04 569.195,-64.319 567.525,-45.119 561.035,-40.56 558.645,-36 559.115,-33.6 555.995,-33.119 
	556.485,-35.759 543.275,-54.239 539.685,-60.479 542.565,-58.319 557.195,-37.919 562.235,-46.08 566.325,-47.04 567.525,-65.04 
	"/>
<polygon points="564.645,36.241 569.925,42 563.445,37.201 556.964,32.161 551.445,20.4 543.525,13.44 541.845,8.881 539.925,5.521 
	541.115,4.801 547.365,15.121 555.275,21.841 556.235,24 557.195,22.561 566.805,26.4 559.605,24.48 556.485,24.241 558.645,31.201 
	564.645,36.241 "/>
<polygon points="566.565,477.601 562.725,472.801 555.765,459.121 543.275,441.601 536.805,418.081 537.275,417.36 537.995,417.36 
	543.995,438.961 550.485,448.801 557.445,458.16 562.235,468.001 566.565,477.601 "/>
<polygon points="556.485,43.92 564.885,49.44 562.485,48 551.445,43.44 552.155,50.161 550.964,55.92 549.035,43.201 
	549.765,41.521 539.685,30.96 528.405,23.281 528.885,21.361 541.605,31.44 552.885,42.241 556.485,43.92 "/>
<polygon points="562.235,8.4 563.925,12.96 561.035,9.601 554.565,4.081 548.565,-1.439 541.605,-4.56 534.885,-11.759 
	537.035,-18.719 532.485,-26.639 535.845,-25.199 538.964,-19.199 537.275,-10.319 538.485,-10.08 539.685,-8.159 554.075,0.721 
	558.155,4.561 562.235,8.4 "/>
<polygon points="555.765,12.48 555.995,15.361 554.075,14.641 550.964,8.161 543.275,2.641 542.075,2.881 543.765,0.96 
	546.405,3.361 555.765,12.48 "/>
<polygon points="545.445,56.881 541.845,55.44 533.445,40.801 525.995,31.44 527.195,30.96 528.645,34.081 535.115,39.121 
	537.525,51.121 541.845,53.761 545.445,56.881 "/>
<polygon points="541.365,652.561 535.115,650.4 526.964,646.561 522.155,645.36 524.805,661.44 524.325,665.28 523.365,662.881 
	519.765,644.881 511.845,640.561 507.035,636.001 507.525,627.36 509.685,638.16 518.805,642.961 520.235,641.041 521.925,641.28 
	522.645,643.44 521.925,636.48 517.845,636.721 521.445,634.561 520.235,620.4 523.365,624.48 521.925,625.681 523.365,633.601 
	528.885,630.961 534.645,630.48 531.035,631.681 523.845,635.28 525.525,643.681 532.725,646.32 536.075,648.48 541.365,652.561 "/>
<path d="M541.115-100.319l-5.04,0.48l-4.8,0.72l4.33,9.6l-5.53-7.44l-0.229-2.16l-21.851-4.08l9.37,18.72l3.6,4.8l1.921,5.28
	l-2.65-3.12l-6.47-10.32l-7.69-14.88l-1.92-0.72v-1.44l-3.35,0.24l-8.4,14.16l8.4,8.4l4.56,10.08l-2.4,0.24l-11.77-16.32
	l-11.51,19.44l5.279,3.12l6.23,14.4l7.45,3.12l5.51,2.16l6.96,0.72h-3.12l-0.72,3.36l-0.71-1.44l-6-0.24l-9.37-0.24l-0.23-1.68
	h-14.89l-4.55-1.44h4.55l14.65-0.48l-6.73-15.84l-7.43-6.72l1.92-0.24l7.44-12.72l-1.2-0.96l-9.61-13.68l-3.12-9.12l-2.63-10.32
	l-1.21-2.4h2.41l4.08,15.12l6.96,12l4.55,6.48l3.84-4.32l-9.84-27.12v-3.84l1.92,4.32l9.12,24.24l4.33-6.96l3.59-7.44l-3.84-6.48
	l-2.39-6.96l0.72-1.2h0.72l7.2,13.92l-0.96-6.72l-0.96-5.76l2.63,5.28l1.69,6.24l6.479-11.28l7.92,6.24l5.521-2.16l7.92,6.24
	l4.31,6.72L541.115-100.319L541.115-100.319z M533.685-100.799l0.24-3.12l-10.32-9.6l-6.49,1.92l-5.75-4.32l-5.76,9.84l5.51,0.72
	l11.29,5.28L533.685-100.799L533.685-100.799z M494.075-46.08l5.771,0.48l-7.69-3.12L494.075-46.08L494.075-46.08z"/>
<polygon points="531.995,309.841 535.845,313.681 528.405,309.121 519.765,301.681 512.565,295.681 521.195,300.24 531.995,309.841 
	"/>
<polygon points="534.885,477.841 536.325,479.041 531.765,493.2 529.605,497.041 530.075,494.4 534.405,478.561 534.885,477.841 "/>
<polygon points="536.325,275.521 533.195,276.48 522.645,279.361 509.685,288 508.725,289.92 512.565,284.161 518.075,280.321 
	531.275,274.801 536.325,275.521 "/>
<polygon points="532.235,426.961 533.195,430.081 530.805,429.36 530.565,424.32 528.405,422.641 525.525,417.121 524.565,413.28 
	520.725,403.681 521.195,390.48 521.445,389.761 522.155,389.761 522.405,394.32 524.805,409.921 529.605,419.041 529.845,421.2 
	532.235,423.121 532.235,426.961 "/>
<path d="M527.685,688.801l1.92,1.68l-2.88,1.2l-10.32-24.48l-2.41,0.96l-6.229,9.36l0.96,1.68l13.92,6.24l1.43,3.36l-3.59-2.641
	l-7.68-2.159l-6-3.601l3.35,13.2l1.92,2.64h-2.88l-16.08-11.279l-0.96,1.68l-1.67-2.64l15.84,3.359l-3.13-7.68l-8.63-6.72
	l-0.72-17.04l-6.24,4.08l0.72,1.92l-10.33,11.04v10.319l-0.47,2.4l3.84,0.479l0.24,6.961l-0.24,5.76l-1.92-10.561l-4.8-0.96l0.96-12
	l-3.84-2.399l6-13.681l3.35-10.08l4.57-6.96l-2.41,7.2l-4.311,14.88l-4.56,8.16l5.28-4.56l6.96-6.721l-0.96-1.68l8.16-6l3.35-9.84
	l2.17,0.96l-3.13,7.44l9.37-3.12l-0.96-7.92l2.63,7.199l10.33-0.239l-9.37,1.92l5.53,15.359l3.6-1.68l5.04,12.72L527.685,688.801
	L527.685,688.801z M505.115,678.24l6.49-14.64l-2.41-6.72l-3.35-6l-10.08,3.6l0.72,17.04L505.115,678.24L505.115,678.24z"/>
<path d="M523.845,326.641l4.56-2.16l-7.44,6.48l-3.359,6.96l-10.57,6.239l-1.67,12.961h-5.29l0.49,8.399l-4.33,0.72l-7.2,5.28
	l6.24-7.439l1.92,0.239l-0.23-25.92l-5.039-1.68l-12.24,12.72l1.92,20.4l-2.641-1.92l-1.199-17.04l-1.2-1.44l0.24-1.2l-3.61-14.159
	l-3.35-9.12l0.229-13.92l-14.39,18l-4.57,3.6l-0.96,3.12l-3.83,6.479l-0.72,3.841l2.63,2.399l6.25,9.12l3.12,4.56l2.39,4.561
	l-3.84-3.36l-6-9.12l-5.75-6.72l-1.92-0.24l-3.6-4.8l-8.16-13.439l-2.16-1.44l0.24-1.68l-11.76-18.48l-1.68-1.439v-1.2l1.91-0.96
	l2.65,2.64l1.2,3.84l9.839,14.88l3.601-5.76l5.76-8.64l3.601-5.04l3.6-4.8l1.439-3.36l2.4-1.92l1.2-2.64l4.8-4.8l7.44-4.8
	l-6.24,6.48l-1.45,2.16l-2.63,2.16l-5.04,7.68l-2.41,2.399l-2.63,4.801l-2.88,4.319l-1.45,13.2l0.73,6.48l-0.96,5.76l3.84,4.8
	l4.31-8.4l6.24-7.92l4.33-4.8l4.8-4.32l8.63-14.64v-1.92l3.12-0.72l-4.31,7.92l1.68,2.16l-1.21,10.319l3.13,9.84l2.63,10.32
	l1.45,5.521l11.51-11.521l1.45-14.399l-4.08-8.881v-4.56l-3.13-9.84l-2.39-1.92l-1.2-4.32l-1.681-7.92L468.885,282l-1.69,1.68
	l-5.75-2.88l-7.68,0.96l-11.53,0.48l-0.96,1.68l-3.35-2.88l-2.16-11.76l3.84-13.44l19.43-3.12l-5.27,1.2l-5.53,1.2l-7.67,2.16
	l-2.88,11.04l0.96,2.4l1.92,9.84l3.59-0.96l8.65,0.48l12.47,0.72l-6-18.24l-0.95-5.52l2.64,4.56l6.48,18.96l11.04,0.72l-0.25-21.6
	l2.88-8.16h0.49l-1.45,7.44l-1.43,14.64l1.68,6.24l0.48,6.24l2.39,8.64l8.17,22.08l1.67-4.8l1.45,1.439l-2.88,20.4l9.59,4.08
	l8.65-21.36l2.399-3.6l-0.96,4.8l-1.92,5.04l-4.33,9.6l-2.63,9.12l-2.88-1.92l0.47,16.56l3.12-0.72l4.08-15.359l8.88-3.601
	l3.12-6.72L523.845,326.641L523.845,326.641z M438.405,336.48l0.71-19.439l-6.71,10.8l2.87,4.8L438.405,336.48L438.405,336.48z"/>
<polygon points="520.485,28.561 524.075,36.96 520.964,32.4 515.925,14.641 519.525,-9.6 519.765,-23.759 521.925,-41.759 
	522.405,-42.479 523.115,-42.479 520.485,-15.6 517.365,14.161 520.485,28.561 "/>
<polygon points="521.195,496.081 523.365,507.121 520.725,500.4 518.565,493.681 516.885,486.48 510.645,476.641 507.525,473.041 
	509.925,455.28 510.405,455.28 509.445,462.961 508.964,471.841 511.605,474.48 516.645,482.641 518.565,484.801 521.195,496.081 
	"/>
<polygon points="520.485,505.921 518.805,512.4 516.645,519.841 512.565,534.721 513.035,544.081 510.885,552.001 508.964,564.48 
	507.765,568.32 507.765,562.561 508.725,555.601 511.605,542.641 510.885,535.681 516.405,514.32 519.765,506.641 520.485,505.921 
	"/>
<polygon points="516.885,-6.719 517.365,-1.679 512.805,21.121 513.525,47.761 512.565,52.321 511.845,46.081 511.845,15.361 
	514.964,1.92 515.685,-5.759 515.925,-6 516.405,-6.719 516.885,-6.719 "/>
<polygon points="513.275,126.241 510.405,127.44 493.115,133.44 488.805,135.121 493.365,131.521 505.365,127.201 513.275,126.241 
	"/>
<polygon points="508.725,-8.399 509.445,-2.879 508.964,3.841 508.964,16.561 506.565,33.361 505.115,45.121 504.885,51.121 
	503.195,56.161 502.485,53.761 504.645,34.321 507.275,16.561 507.995,-7.679 508.725,-8.399 "/>
<polygon points="507.525,363.601 506.805,370.801 506.805,374.16 502.725,383.761 504.885,374.16 506.805,364.32 507.035,363.601 
	507.525,363.601 "/>
<polygon points="505.845,-11.759 504.155,-14.399 499.845,-22.799 495.035,-32.639 495.275,-33.359 496.964,-33.6 505.845,-11.759 
	"/>
<polygon points="506.075,18 503.925,15.841 493.605,0.721 494.325,0.241 494.805,0.48 500.805,9.121 506.075,18 "/>
<polygon points="499.365,518.641 504.155,529.681 501.765,524.641 477.275,510.721 475.845,540.48 474.155,534.48 476.075,515.761 
	475.365,511.681 474.155,502.081 476.805,497.28 477.035,497.28 476.325,499.44 475.605,507.601 478.485,507.841 480.155,510.001 
	499.365,518.641 "/>
<path d="M503.685,603.601l-1.69,3.84l-7.67,10.32l-6.479,11.52l-6,6.721l-6.24,6.479l-3.84-3.12l-3.61,15.601l-1.67,1.199
	l-5.04,21.36l-4.33,14.4l-1.67,7.92l-0.72-5.28l4.8-17.52l4.32-18l1.43-6l-0.47-16.08l-4.08-0.96l-6.49,14.399l-1.91-1.2
	l6.24-14.399l-13.2-4.8l-8.64,18l-3.84,5.04l2.88-8.641l3.84-7.92l12.24-23.04l13.68-27.359l6.71-10.801l1.92-9.12l-6.71-5.039
	l-8.17,25.199l-1.91-0.72l8.16-25.92l-9.12-8.88l-16.8-2.88l-6,44.16l-0.96,6l-0.72-6.48l2.88-26.64l3.35-17.521h9.37l4.08,1.92
	l15.59-3.12l2.17,0.24l6.96-2.16l-4.09,2.641l-2.16,2.88l-1.92,8.88l6.96,5.28l6.49-18l1.92-0.24l6-13.92l5.28-6.24l-1.44,2.4
	l-3.6,7.68l-6.96,13.44l-0.96,2.64l-2.881,10.56l-3.359,5.04l-1.68,5.04l0.479,2.88l-6.72,11.28l-9.12,16.08l-4.57,9.12l-0.229,2.16
	l-7.44,13.439l12.95,4.561l0.72-6.721l8.891-27.84l4.079-8.16l5.521-13.92l-2.41,8.4l-0.71,3.84l-5.29,11.521l-4.55,12l-1.68,6
	l-1.92,7.92l-0.73,8.64l3.61,0.72l10.56-23.279l5.521-15.36l1.92-7.2l4.08-5.04l-2.65,6.48l-2.39,7.2l-4.811,14.399l-0.71,4.32
	l1.67,0.24l-6,20.88l4.33,1.68l10.08-10.32l6.71-11.279l3.85-5.28l6-6.24L503.685,603.601L503.685,603.601z M474.165,621.261
	l-0.01-0.14L474.165,621.261l-0.01,0.1l-7.19,14.16l3.36,0.72l2.4-7.92L474.165,621.261L474.165,621.261z M467.925,647.041
	l1.92-8.641l-3.12-0.72L467.925,647.041L467.925,647.041z M466.485,557.521l1.67-9.12l-9.35,1.681L466.485,557.521L466.485,557.521z
	"/>
<polygon points="502.485,385.921 496.964,382.801 489.035,376.561 502.485,385.921 "/>
<polygon points="498.405,526.801 499.605,526.801 496.964,557.761 497.195,561.841 495.275,558.48 497.925,527.521 498.405,526.801 
	"/>
<polygon points="494.565,10.321 494.075,12.96 477.525,19.201 482.075,15.361 492.645,11.521 489.765,-5.04 488.075,-10.319 
	487.115,-14.879 485.195,-8.159 485.445,-7.919 481.365,1.681 475.605,16.801 483.995,43.681 483.995,47.281 482.325,43.92 
	476.075,25.44 472.725,17.281 473.195,15.361 477.275,8.4 485.925,-18.719 486.645,-19.919 485.445,-25.919 485.195,-31.199 
	487.365,-24 487.845,-22.56 488.075,-15.6 489.765,-10.319 490.485,-6.719 494.565,10.321 "/>
<path d="M491.445,404.641l-0.48,4.56l-6.239,13.2l-1.45,1.92l5.76,13.44l-1.67,0.96l-0.72,4.08l-2.16-0.48l0.96-4.319l-12,3.359
	l-5.52,6.48l-2.4,10.08l0.47,9.6l-1.43-5.04l-6.72,10.08l1.189-6.72l4.811-6l0.96-9.12l-7.2,5.04l-7.2,4.32l0.96-2.16l-4.56-5.28
	l-12.24-8.16v8.641l-1.68-0.24l-1.44-13.92l0.96-1.2l-6.72-12.24l2.39,0.72l-0.71,1.681l6.71,9.12v1.68l14.16,12.72l4.33,5.28
	l3.59-2.4l-1.19-6.72l-3.85-6.72l-5.51-8.16l-0.96-5.521l0.24-6l0.479,1.44l-0.96,0.72l1.92,2.88l2.16,7.681l0.96-1.2l1.2,1.2
	l7.92-0.48l-1.2-7.439l-36.24-22.32l4.56,0.72l6.24,5.521l21.35,13.2h1.92l11.53,0.96l4.31-4.08l-14.63-3.841l-1.21-2.159
	l-15.12-0.24l30.25-5.04l2.16,0.24l-8.64-5.521l-10.32-4.8l-4.8-3.12l1.2-2.16l4.8,3.601l11.51,6l5.29,3.359l9.59,7.44h-2.15
	l0.23,2.88l-3.83,15.36h-1.439l1.92-12.721l-6,4.801l1.92,7.199l1.68,7.92l2.16,1.921l10.08-5.28l-4.57-10.8L491.445,404.641
	L491.445,404.641z M477.995,412.561l-4.8-1.68l-15.59,2.88l11.28,2.64l1.92,1.44L477.995,412.561L477.995,412.561z M467.445,445.921
	l4.08-11.28l-2.41-7.68l-3.35-1.2l-5.53,0.72l-0.96,0.72l1.689,6.96l-5.279,10.801l2.16,7.68l7.68-5.52l0.47-1.44L467.445,445.921
	L467.445,445.921z M458.325,434.881l-8.17,1.68l4.81,6.72L458.325,434.881L458.325,434.881z"/>
<polygon points="491.925,696.961 490.235,696.961 489.525,692.4 486.645,673.681 488.565,673.44 491.925,696.961 "/>
<polygon points="477.765,398.4 480.885,402.48 476.565,400.32 462.885,389.761 469.115,391.44 477.765,398.4 "/>
<polygon points="469.115,377.041 471.995,377.041 460.235,376.32 453.275,374.4 453.995,372.961 461.685,374.641 469.115,377.041 
	"/>
<polygon points="469.365,511.2 471.275,517.681 467.925,512.16 461.685,499.921 459.995,492.24 469.365,511.2 "/>
<polygon points="466.485,364.081 467.195,375.841 464.565,366.24 466.485,364.081 "/>
<polygon points="459.765,299.041 463.845,316.081 460.964,315.36 454.725,296.881 459.765,299.041 "/>
<polygon points="461.925,-36 465.035,-42.479 463.365,-32.159 460.964,-24.959 460.725,-1.919 460.725,4.801 459.035,-2.399 
	459.275,-18 455.685,-10.08 455.925,-13.199 458.075,-19.439 457.115,-21.359 442.725,-17.52 453.035,-17.04 452.325,-13.679 
	451.115,-15.6 441.995,-14.639 441.035,-16.799 425.925,-11.759 435.765,13.44 433.605,10.561 422.565,-11.52 416.085,-10.56 
	426.885,19.44 427.845,23.761 424.725,17.761 418.005,-2.159 413.205,-9.839 408.405,-11.04 413.445,-12.239 424.235,-13.919 
	426.405,-21.119 428.325,-24.239 427.365,-31.919 425.925,-42.479 428.565,-36.239 430.235,-25.199 427.115,-14.399 
	444.645,-20.879 448.235,-23.279 456.645,-24.239 457.115,-23.04 459.275,-23.279 459.995,-30 461.685,-30.959 461.685,-31.919 
	458.075,-41.52 461.925,-36 "/>
<polygon points="455.195,84.96 456.885,84.96 448.235,100.321 445.605,104.4 443.685,105.361 442.235,107.281 440.565,108 
	437.195,112.321 438.155,123.601 435.995,121.92 435.995,109.92 437.685,108.96 439.365,106.321 442.485,103.681 444.405,103.201 
	455.195,84.96 "/>
<polygon points="453.765,-7.919 455.925,5.761 454.235,0 450.405,-11.279 451.845,-13.439 453.765,-7.919 "/>
<polygon points="454.964,10.801 453.995,20.4 451.115,26.881 447.765,34.561 452.075,21.361 449.925,21.841 451.845,19.92 
	454.964,10.801 "/>
<polygon points="452.325,-31.679 453.275,-29.759 450.405,-29.279 448.485,-36.959 446.325,-41.759 443.195,-48.239 
	435.765,-54.959 433.605,-55.439 420.165,-68.879 415.365,-80.399 413.925,-81.839 415.605,-84.479 422.565,-69.359 
	440.075,-53.279 443.195,-50.399 452.325,-31.679 "/>
<polygon points="453.275,204.96 449.925,198.96 441.765,187.92 441.765,187.201 442.485,186.96 453.275,204.96 "/>
<polygon points="447.765,389.041 451.365,392.641 443.445,388.561 435.995,383.521 433.845,383.041 435.275,380.881 
	435.525,381.121 447.765,389.041 "/>
<polygon points="446.075,-73.919 448.964,-66.239 446.325,-69.359 441.035,-80.879 436.235,-91.199 433.605,-100.08 
	429.035,-104.159 414.885,-114.479 415.605,-116.159 419.445,-111.119 423.035,-109.679 427.115,-107.04 430.235,-105.839 
	433.115,-103.199 438.155,-92.399 442.725,-82.319 446.075,-73.919 "/>
<polygon points="445.365,75.601 444.155,75.841 433.605,66.241 432.155,79.201 430.485,95.521 428.325,98.881 429.525,91.92 
	430.235,74.641 432.405,63.361 436.235,53.761 437.195,53.761 437.445,54.241 433.845,63.601 440.075,69.361 445.365,75.601 "/>
<path d="M439.845,625.681l4.8-3.6l-3.84,5.52l-3.36,6l-3.37,3.6l-7.43,9.841l-2.65,2.88l-0.96,6.479l-0.96,6l3.12,5.76l-0.47,3.601
	v4.8l-3.36,19.44l-1.44-3.841l2.4-20.159l0.48-3.12l-3.36-6.48l1.44-2.88l1.44-10.08l-7.68-10.56l1.44-4.8l5.28-14.16l-10.32,7.2
	l3.12,26.399l-1.68,16.08l-2.4-0.96l1.92-7.68l-3.12-30.48l-1.2-1.68l1.44-7.2h-3.37v2.4l-8.39,21.6l-3.36,14.16l-0.73,7.68
	l-2.63-0.24l3.36-14.399l9.84-29.76l-0.24-4.32l5.52,0.72l0.96-3.84l1.44,3.36l4.56-0.721l4.08-2.88l-0.96,2.641h2.641l1.43-1.92
	l0.72,1.92l2.41,1.439l-1.92,3.12l0.24-2.64l-2.88,3.6l-5.521,13.68l7.44,9.601l3.84-3.84L439.845,625.681L439.845,625.681z
	 M414.165,620.4l-3.12,0.721l-0.25,2.88L414.165,620.4L414.165,620.4z"/>
<polygon points="440.325,34.801 443.445,34.561 436.235,50.4 433.115,48 434.805,48 441.275,36.241 440.325,34.801 "/>
<polygon points="438.645,-61.439 440.805,-56.639 434.325,-63.359 425.685,-76.799 423.995,-82.08 424.485,-81.839 429.995,-72.719 
	434.805,-65.279 438.645,-61.439 "/>
<polygon points="437.445,85.201 439.365,90.241 435.525,84.721 432.645,80.881 433.365,80.4 434.075,80.641 437.445,85.201 "/>
<polygon points="434.075,222.721 432.885,228.48 431.195,235.201 428.075,248.161 418.235,280.801 415.605,284.641 418.005,277.92 
	420.165,270.721 425.925,248.641 412.485,248.881 412.965,232.321 418.485,219.841 420.645,213.121 420.165,220.321 416.795,223.44 
	414.885,232.801 414.885,244.801 414.885,248.4 426.155,246.721 434.075,222.721 "/>
<polygon points="434.805,260.161 429.525,251.281 429.995,248.641 430.485,248.641 431.925,252.721 434.805,260.161 "/>
<polygon points="430.964,214.801 431.685,223.201 429.035,215.281 429.525,209.281 428.805,204.241 429.525,200.641 
	429.035,195.361 429.035,189.601 430.235,189.121 430.964,195.841 431.195,200.881 430.485,205.201 431.195,208.801 
	430.964,214.801 "/>
<polygon points="431.195,575.521 426.405,600.24 424.235,599.521 430.235,575.521 431.195,575.521 "/>
<polygon points="430.235,515.521 430.964,515.761 427.365,543.841 425.925,539.761 427.365,531.121 429.275,516.001 
	430.235,515.521 "/>
<polygon points="430.235,546.001 430.964,546.001 424.485,587.041 423.275,590.641 423.765,583.44 427.605,560.4 430.235,546.001 
	"/>
<polygon points="429.275,495.121 429.275,498.001 427.115,508.32 424.485,524.641 423.525,529.44 421.845,533.28 422.805,523.921 
	428.565,495.841 428.805,495.121 429.275,495.121 "/>
<polygon points="428.805,116.161 427.365,127.681 420.405,139.681 423.035,149.041 426.155,157.44 422.565,155.521 423.035,154.081 
	417.755,138.96 428.075,116.161 428.805,116.161 "/>
<polygon points="427.365,354.48 427.605,357.601 425.445,348.48 421.365,321.36 421.845,320.641 423.275,321.121 422.805,323.28 
	427.115,344.881 427.365,354.48 "/>
<polygon points="421.365,562.32 426.405,562.081 419.205,564.48 407.925,561.36 394.725,560.641 389.925,558.721 375.525,553.681 
	377.685,598.561 388.485,637.681 390.165,651.121 391.125,653.28 389.685,656.881 387.525,653.28 388.485,654.721 380.795,615.121 
	375.045,596.881 373.365,552.48 372.885,550.561 373.605,549.601 371.445,523.44 369.045,510.24 370.235,484.081 370.485,483.36 
	371.205,483.36 370.725,508.801 373.125,521.521 376.005,549.36 376.235,551.041 379.605,553.681 401.925,559.44 407.445,559.44 
	421.365,562.32 "/>
<polygon points="422.805,355.44 424.725,355.921 420.165,353.28 416.565,350.881 408.885,341.28 400.965,332.16 401.445,331.921 
	402.405,331.921 408.885,338.881 417.525,349.681 422.805,355.44 "/>
<polygon points="423.275,493.921 423.995,494.16 416.085,522.961 414.405,528.961 414.405,525.601 416.085,513.121 423.275,493.921 
	"/>
<polygon points="422.075,183.601 422.805,186.721 420.885,186.96 414.165,197.521 416.565,198.96 415.365,201.841 414.405,199.92 
	411.755,206.881 410.795,216.721 408.885,215.761 410.565,212.161 409.845,208.081 410.795,199.201 402.885,197.761 
	394.235,215.281 392.795,226.801 391.845,233.041 390.165,232.081 392.325,214.801 397.605,205.201 400.235,200.641 
	400.485,197.281 398.565,197.281 390.405,193.44 398.325,194.161 399.525,183.841 401.445,180.96 401.925,178.321 408.405,172.561 
	410.325,173.521 409.365,175.44 408.165,174.721 403.605,178.801 400.005,188.161 400.965,194.881 414.165,182.4 414.405,180.48 
	416.795,181.201 403.365,195.601 412.235,196.561 415.845,190.561 422.075,183.601 "/>
<polygon points="410.795,403.681 417.275,404.641 410.325,405.601 413.445,416.4 415.125,427.921 413.205,442.081 416.565,451.2 
	413.925,446.4 411.755,444.001 411.045,438.24 412.725,424.32 411.525,421.681 410.795,415.44 408.405,405.841 401.925,408.721 
	393.045,411.121 388.725,412.561 384.885,413.28 388.485,410.641 393.045,408.961 403.125,406.561 409.125,403.44 410.795,403.681 
	"/>
<polygon points="415.605,681.36 412.965,683.28 412.485,682.081 400.485,679.44 400.485,689.041 397.605,687.841 397.845,676.801 
	415.605,681.36 "/>
<polygon points="405.755,374.4 414.165,380.4 411.045,378.961 405.755,377.041 390.405,371.28 387.045,391.2 384.405,400.081 
	382.965,410.16 376.005,449.521 375.525,462.721 376.965,466.561 393.525,469.921 396.165,469.44 394.485,471.841 377.445,468.961 
	379.605,508.081 377.925,503.28 375.525,471.121 373.605,469.921 372.645,468.001 370.235,467.521 365.925,499.921 364.725,510.24 
	364.005,519.36 362.085,530.881 360.165,538.561 360.405,526.801 361.605,523.44 362.795,505.2 364.235,498.961 365.925,482.641 
	368.085,467.041 370.965,462.48 370.485,465.601 373.365,466.32 380.325,412.081 380.795,393.121 379.365,383.761 380.795,365.761 
	380.085,350.16 380.565,341.041 375.275,324.721 375.275,324.48 380.565,331.921 382.725,347.521 382.485,374.881 382.965,394.801 
	384.885,391.681 387.755,371.28 386.085,369.601 388.725,368.16 389.205,352.081 390.645,368.4 403.845,373.921 408.165,364.081 
	406.965,359.761 410.325,364.081 405.755,374.4 "/>
<path d="M362.085,17.69l1.44-0.41l8.16,26.64l2.64-2.64l-8.64-36.48l2.16,3.36l1.92,7.44l2.4,7.2V-4.56l-10.8,4.08L362.085,17.69
	L362.085,17.69z M413.925,25.201l-8.4,6.72l5.04,14.88l-2.4-0.72l-1.44-8.16l-2.88-4.56l-7.68,0.48l-5.76,1.92l3.6,17.04l-1.92-3.12
	l-2.4-6.72l-3.36-5.52l5.04,14.64l0.96,4.32l-1.44-1.92l-6.72-15.84l-10.56,6.24l-4.56,7.92l1.92,17.04l8.4-3.6l4.8-1.92
	l-12.96,8.16l2.64,10.08l0.72,6.48l2.16,2.88l-4.56-8.88l-2.64-9.6l-1.92,7.92l-7.2,9.6l-1.2,8.16l-1.68,7.68l-1.68,6.48l-1.68-1.68
	l1.2-1.44l2.87-19.92l1.69-2.64l0.48-2.4l5.52-5.52l-0.96-6.24l1.44-1.2l2.87-0.72l-2.15-16.32l-11.04,4.56l-6.72,6.24l4.8-7.68
	l11.76-5.04l0.48-1.68l4.56-4.32l-8.64-27.84v9.84l-0.96,12l-0.24,6.48l-1.2-9.12l0.96-8.64l-0.72-4.56l0.48-4.8l-0.48-14.16
	l-1.2-5.52l-1.69-1.44l13.69-6.48l13.92-3.12l18.72-0.24l3.84-24.24l-8.17-21.84l-4.79-13.2l-0.25-7.44l-7.19,8.64l-3.6,2.4
	l2.4-3.84l8.39-10.8v-1.92l2.65-1.44l-1.68-0.48l0.48-7.68l-2.64-2.88l2.4-5.28l-4.32-19.68h1.44l5.04,19.68l-2.88,3.84l2.88,9.84
	l7.92-13.44l-0.73-13.2v-5.76l1.69,6.96l1.2,14.64l-5.52,9.84l-2.64,1.92l-2.88,5.52l1.44,18.48l2.4,3.36l2.88,5.76l6,19.68
	l-5.28,27.84l-0.96-3.36l-29.04,2.64l0.24,30l-1.68,1.44l3.36,13.92l11.27-4.8l-2.87-8.16l-2.88-7.44l2.64,3.12l5.04,11.52
	l1.68-0.24l-6.24-23.28l-2.41-7.44V0l-0.96-3.12l2.65,5.28l2.16,7.92l6.96,22.56l5.04-0.96l-3.6-15.84l-1.21-2.88l3.13,3.84
	l3.83,15.6l2.65-1.68L413.925,25.201L413.925,25.201z"/>
<polygon points="408.165,49.201 410.085,49.201 409.605,49.681 408.165,49.201 "/>
<polygon points="407.685,138.241 412.005,132.721 403.845,154.561 400.485,166.081 399.755,169.681 397.125,173.281 
	391.605,185.041 389.685,199.201 385.365,220.801 382.485,230.881 379.365,240.48 365.925,265.681 360.165,271.201 362.795,267.841 
	366.645,260.4 374.565,246.241 378.165,238.321 387.755,198.241 388.725,190.801 389.925,183.841 391.605,181.201 392.795,176.641 
	398.565,167.041 404.795,145.681 407.685,138.241 "/>
<polygon points="406.235,300.001 406.725,302.4 404.565,302.16 403.365,287.761 401.925,280.081 397.125,266.641 397.125,257.041 
	397.605,256.321 398.325,256.321 398.565,264.241 403.125,278.161 404.795,286.801 406.235,300.001 "/>
<polygon points="405.275,5.521 406.235,12.721 402.165,-0.959 402.405,-1.679 402.885,-1.679 404.325,1.681 405.275,5.521 "/>
<polygon points="403.365,500.881 404.565,500.881 402.645,513.601 401.925,519.36 401.205,516.001 403.125,501.601 403.365,500.881 
	"/>
<polygon points="403.605,481.681 404.325,481.921 400.965,500.16 401.445,501.841 399.275,503.521 401.205,493.44 403.125,482.16 
	403.605,481.681 "/>
<polygon points="394.965,98.881 397.845,112.561 395.205,106.081 393.275,99.121 388.235,98.641 393.755,114.96 394.005,120.48 
	392.565,116.4 386.565,99.601 379.845,100.801 384.885,115.201 381.755,109.44 377.445,101.521 375.045,102 373.605,99.841 
	375.755,99.841 376.485,98.4 385.845,97.44 382.005,87.841 383.685,87.601 387.275,96.721 392.325,96.721 389.925,93.121 
	394.005,96.721 398.085,96.96 394.965,98.881 "/>
<polygon points="393.525,686.881 394.235,696.721 392.565,697.44 390.405,681.601 392.085,678.48 393.525,686.881 "/>
<polygon points="393.275,156.721 384.885,169.681 381.045,177.601 377.925,180.96 376.485,185.281 373.605,190.801 371.205,196.801 
	364.005,209.761 357.765,223.681 353.685,228.721 348.885,233.041 351.045,228.96 359.205,216.96 364.005,205.92 369.765,196.081 
	372.165,190.081 375.045,184.561 376.485,180 380.085,176.161 384.405,167.761 392.085,156.96 392.565,156.48 393.275,156.721 "/>
<polygon points="389.685,610.801 388.965,614.4 387.525,610.32 382.005,577.921 383.205,577.681 383.685,580.801 385.605,594.24 
	386.795,600.721 389.685,610.801 "/>
<polygon points="378.885,273.361 378.165,278.4 376.965,284.4 372.405,294 371.685,297.361 375.525,284.161 377.925,274.081 
	378.405,273.361 378.885,273.361 "/>
<path d="M377.925-60.959l-0.48,40.8l-4.08-6.72l-2.88-7.68l-20.4,0.96l-7.44-11.76l-19.68-6.96l-16.8-3.12h5.76h3.12l26.64,7.44
	l-2.64-6l-44.4-3.6l-1.2-0.96l-6.96,9.84l2.16-3.6l2.88-7.92l2.88-4.32l0.72-2.88l3.36-6l-6.48-11.52l-1.21-0.72l-6.47,3.36
	l-3.84,2.4l2.64-4.32l6.96-3.36l3.36-3.12l3.6-6.24l0.23,2.4l1.69,1.92l1.92,14.16l4.32-8.64l-4.8-7.68l-5.52-12.72l4.8,8.88
	l6.96,10.08l5.28-4.56l5.28-18.96l-4.56-4.56l5.28,2.4l1.2-0.72l0.72,2.16l10.56,21.6l0.24,0.72l5.76,13.44h0.48v0.24l1.44,3.12
	l-3.6-20.88l-5.28-24.48l3.6,8.16l1.92,7.2l5.27,27.84l4.81,1.2l7.19,4.32l-0.71-17.28l0.48-10.08l0.48,1.2v1.68l1.68,25.68
	l11.28,4.56l-6.72-0.24l-4.56-1.68l-0.48,5.52h5.28l0.96-2.16l0.24,0.72v-0.48l1.44,1.68l2.88,1.92l-1.44,0.96l1.44,4.32l6.48-0.24
	l-5.28,2.88l6,14.16l3.11,0.24l1.21-23.28l-8.16-6.24l6.24-16.56l0.96-6.96l-5.04-4.32l-3.12-26.16h2.16l-0.72,0.72l2.64,22.08
	l-0.24,1.44l6.48,5.04l-6.72,22.32l-0.96,1.44L377.925-60.959L377.925-60.959z M375.045-28.319v-6h-2.16L375.045-28.319
	L375.045-28.319z M359.685-36.719l9.84-0.48l-6.48-14.4l-20.88-1.68l3.36,6.96l4.08,10.08l7.19,0.48L359.685-36.719L359.685-36.719z
	 M362.085-54l-1.92-4.08l-6.96,0.96l-11.04,0.72L362.085-54L362.085-54z M351.525-60.479l0.71-7.68l-11.03-4.32l0.96,12.48
	L351.525-60.479L351.525-60.479z M340.005-59.759l-0.24-6.72l-3.6-7.92l-4.56-6.48l-3.12-10.8l-3.12-8.4l-6-10.32l-6.24,19.68
	l-4.33,3.36l6,6.96l3.13,5.52l16.31,13.2l0.49,1.92H340.005L340.005-59.759z M322.965-60.239l9.83,0.48l-12.47-9.12l-14.16-16.08
	l-4.08,9.12l0.96,4.56l18.96,9.6L322.965-60.239L322.965-60.239z M300.885-60.479l12.24-1.2l-13.44-9.84l-5.52,10.8L300.885-60.479
	L300.885-60.479z M298.725-77.279l-2.64-14.4v-0.24l-2.64,4.08L298.725-77.279L298.725-77.279z"/>
<path d="M369.045,169.92l2.88-3.6l-6.24,12.24l-4.08,9.36l-3.6,9.6l-7.68,18.72l-14.4,38.64l9.84-9.84l15.84-20.88l4.56-12.24
	l2.63-5.52l-1.91,9.36l-3.61,8.4l-7.43,10.56l-3.36,2.64l-5.76,9.6l-6.72,6.96l-3.36,4.32l-3.37-1.44l1.21-3.84l4.56-13.44
	l5.52-12.48l7.2-19.68l5.28-12.24l2.16-6.24l-0.24-2.4l1.44-7.44l2.16-16.08l-11.29,3.36l-3.83,11.76l-2.88,12.24l-9.12,20.64
	l-7.44,25.2l-10.8,15.84l-3.84,4.8l1.43-4.08l14.65-26.88l4.08-14.88l5.27-13.68l-5.52,4.08l-4.79,5.52l-11.76,35.28l-2.64,5.28
	l-3.85,3.84l2.41-5.04l10.32-28.8l2.16-5.76l1.67-6l5.53-6l7.44-7.92l1.44,0.24l7.2-24.48l-11.04,8.88l-3.36,4.32l-2.88,4.8
	l-3.36,3.12l-7.2,7.2l5.04-7.68l-13.92,3.6l1.2,1.68l-2.16,1.44l-2.4,7.92V198l0.95-5.76l-2.63-6l-2.64,8.64l-2.4,3.84l2.4-10.32
	l1.68-6.48l-1.68-2.64l-1.68-7.2l4.08,7.2l2.87-6.48l-1.91,9.12l2.64,6.24l4.79-16.08l-1.19-0.24l2.88-5.52l1.68,1.44l10.8-3.84
	l12.72-4.32l4.08-3.12l-4.8,5.76l-23.52,8.64l-5.52,18l5.76-2.4h3.59l9.13-3.36l21.36-30h0.47l2.41,2.4l-2.41,7.92l9.61-2.88
	l2.88,0.72l-2.88,20.4L369.045,169.92L369.045,169.92z M350.085,164.161l1.68-6.48l-4.56,7.2L350.085,164.161L350.085,164.161z"/>
<path d="M354.645,471.36l12-9.84l-2.88,3.12l-6.97,8.4l-2.39,0.239l-0.24,12.48l0.72,2.399v9.601l-0.96,35.76l-1.92-4.32v-7.92
	l1.2-9.359l-0.24-18.721l-5.04,4.561l-8.65,10.08l-5.04,3.359l1.93-2.64l16.07-18.72l0.73-1.681l0.72-50.88l0.24-0.239h0.96
	L354.645,471.36L354.645,471.36z M354.405,496.32l-0.24-2.399L354.405,496.32L354.405,496.32z"/>
<polygon points="365.445,639.36 364.965,646.561 364.005,641.521 362.795,619.44 355.125,616.32 350.325,613.921 345.045,603.601 
	343.125,600.961 341.925,597.36 339.275,595.44 335.445,591.841 327.525,580.801 327.765,601.681 331.605,629.28 331.845,634.561 
	330.165,630.721 327.045,619.2 326.325,599.761 325.125,582.961 322.965,571.921 326.795,576.721 328.725,577.44 336.885,590.4 
	340.725,594.001 343.365,595.921 345.275,601.2 346.725,602.641 347.925,606.721 359.445,617.041 364.485,618.48 365.445,639.36 "/>
<polygon points="359.685,588.961 358.965,595.44 358.005,590.881 355.125,568.32 356.565,568.081 357.045,570.961 359.685,588.961 
	"/>
<polygon points="359.445,72.96 358.485,76.561 353.445,74.161 340.235,71.521 339.045,72.721 337.125,68.4 359.445,72.96 "/>
<polygon points="354.885,409.2 350.565,418.081 344.085,425.041 343.605,426.48 331.845,431.28 329.925,433.2 327.525,434.4 
	317.685,450.721 341.445,455.761 322.235,454.081 309.045,473.521 310.235,487.921 308.565,484.561 304.235,456.24 304.005,448.32 
	305.925,427.2 307.365,418.561 307.605,432.001 306.405,438.24 308.325,470.881 314.565,463.2 319.845,454.081 316.005,454.32 
	312.405,460.32 307.845,464.881 311.205,458.16 321.525,437.28 326.795,432.24 331.365,429.121 342.165,424.801 353.685,409.2 
	354.885,409.2 "/>
<polygon points="338.565,-15.359 339.045,-7.919 335.925,2.881 332.565,21.361 330.165,32.161 328.725,32.641 324.885,63.361 
	323.685,67.201 322.965,51.361 319.125,57.841 314.795,63.121 316.235,60 321.275,50.161 315.045,28.081 313.365,24.48 
	316.965,26.641 320.795,42.96 322.235,46.321 324.165,43.681 327.275,31.201 326.085,25.92 323.445,11.281 321.765,4.081 
	321.045,3.841 323.205,-10.56 319.605,-20.639 315.765,-30.239 314.565,-34.56 317.685,-29.759 323.925,-12.479 325.605,-11.52 
	322.485,2.4 324.885,6.96 325.125,10.321 328.235,27.121 331.365,17.761 332.565,15.121 334.485,2.4 337.605,-8.879 
	338.565,-15.359 "/>
<polygon points="335.205,474.721 332.085,480.48 330.405,488.4 328.005,504.721 329.445,519.601 330.405,557.521 328.005,562.801 
	328.485,558.24 329.685,542.16 326.325,506.16 326.795,495.36 328.235,491.041 329.925,480.961 335.205,474.721 "/>
<polygon points="328.485,684.001 325.845,683.761 327.275,684.721 324.165,684.24 324.885,683.521 323.685,674.881 322.235,665.761 
	322.235,650.641 325.365,650.16 324.165,651.121 323.445,658.561 324.165,665.761 325.605,674.641 325.845,682.081 328.485,684.001 
	"/>
<polygon points="328.235,135.121 322.235,148.801 320.085,156.721 316.485,162.721 317.445,159.841 319.845,153.361 
	326.085,134.881 328.235,135.121 "/>
<polygon points="327.275,117.121 326.325,123.601 325.605,117.841 322.485,105.361 317.445,100.321 313.605,95.521 313.605,110.161 
	312.405,117.361 318.405,129.361 314.325,123.841 310.235,118.321 300.885,118.561 298.005,116.641 295.365,116.161 
	293.205,114.721 288.645,112.321 295.845,114.241 301.125,116.641 311.205,114.96 311.925,93.121 310.725,90 311.685,89.281 
	319.125,99.601 323.685,103.681 327.275,117.121 "/>
<polygon points="322.235,578.641 320.795,582.721 320.565,579.601 312.405,560.641 311.685,551.041 310.725,547.921 
	313.845,557.761 316.005,566.16 322.235,578.641 "/>
<path d="M320.795,682.801l0.97,0.96l-4.56,2.64h-0.97l-8.15,6l-0.24-1.92L320.795,682.801L320.795,682.801z M316.235,685.681
	l-0.23-0.48l-1.92,1.681l0.71,0.24L316.235,685.681L316.235,685.681z M314.085,687.601l-1.2-0.24l-2.16,2.4l-0.49,0.24h1.21
	l1.92-1.2L314.085,687.601L314.085,687.601z"/>
<polygon points="318.885,199.92 321.275,196.801 317.205,207.361 311.685,216.96 310.725,220.801 307.365,225.601 308.085,221.761 
	310.005,216.721 314.795,208.561 318.885,199.92 "/>
<polygon points="318.645,633.601 315.525,636.24 298.235,647.521 288.885,656.4 286.485,674.641 284.795,679.2 297.045,666.48 
	310.725,654.24 315.275,650.16 312.165,655.2 298.965,667.2 295.605,671.041 289.605,677.521 282.885,686.16 280.965,686.881 
	275.205,699.121 277.845,690.001 284.795,674.16 286.965,657.601 284.565,656.641 294.405,648.48 299.685,644.641 306.885,640.081 
	317.205,632.881 318.645,633.601 "/>
<polygon points="317.205,-7.439 316.005,10.081 315.045,24 313.845,24 315.525,0.721 316.725,-4.799 310.965,-7.919 305.445,-11.04 
	297.765,9.121 292.485,20.641 290.565,21.361 280.005,37.44 268.725,52.561 267.525,63.601 265.845,54 270.165,36.721 
	269.205,30.96 269.205,20.641 268.005,17.041 270.645,15.361 269.925,17.521 270.645,29.761 271.845,34.561 269.925,47.521 
	282.405,30.48 286.965,25.201 288.885,20.881 295.845,11.521 301.605,-5.279 304.725,-12.959 301.845,-19.199 292.235,-1.439 
	288.165,9.601 281.445,13.92 291.765,-4.319 295.125,-10.319 301.125,-22.799 301.605,-26.639 304.005,-18.239 306.405,-12.719 
	317.205,-7.439 "/>
<polygon points="316.235,534.721 315.275,540.721 310.235,522.48 310.725,535.44 310.005,541.2 309.275,536.641 308.325,523.921 
	307.845,515.28 306.165,512.641 305.205,509.521 303.275,506.4 301.605,499.44 300.885,492.961 303.045,497.041 307.605,510.48 
	306.405,489.36 307.125,488.641 308.085,488.641 309.765,515.28 312.405,522.24 316.235,534.721 "/>
<polygon points="315.525,133.44 308.565,126.96 296.795,161.041 295.125,159.361 302.325,135.361 306.405,125.281 297.275,131.761 
	292.965,135.121 288.645,138.48 288.405,136.321 290.085,135.841 304.725,122.881 306.405,123.361 305.205,120 306.405,119.761 
	308.325,123.121 315.525,133.44 "/>
<polygon points="313.845,139.44 314.795,139.44 309.275,155.281 306.885,160.081 307.605,156 313.845,139.44 "/>
<polygon points="312.165,578.16 312.645,586.801 311.445,583.2 306.645,564.961 305.205,557.28 303.525,553.921 303.765,553.44 
	304.725,553.2 307.365,561.36 312.165,578.16 "/>
<polygon points="304.235,55.681 305.685,70.801 304.005,67.44 302.565,55.681 303.275,53.281 303.045,48.241 301.845,34.801 
	303.275,32.4 303.525,32.641 304.235,55.681 "/>
<polygon points="303.275,599.041 304.965,604.081 297.525,622.081 291.765,632.881 292.485,642.24 291.525,646.32 290.085,636.961 
	283.125,644.881 285.045,639.841 289.845,633.841 301.845,612.48 302.325,599.761 302.795,599.041 303.275,599.041 "/>
<polygon points="301.605,32.4 302.565,32.4 302.085,33.841 301.605,32.4 "/>
<polygon points="302.085,393.121 302.085,397.44 300.165,391.921 299.685,371.761 299.925,371.521 300.165,370.801 300.885,370.801 
	302.085,393.121 "/>
<polygon points="300.405,592.801 302.085,595.681 294.885,589.2 294.645,577.921 293.205,572.4 290.795,568.801 288.645,562.081 
	283.605,570.48 286.485,576.24 288.405,576.24 286.725,582.721 278.325,601.2 271.125,613.2 264.885,623.761 261.525,636.48 
	256.235,645.36 254.085,649.921 257.205,641.28 260.325,635.28 262.005,627.121 268.235,615.36 274.485,603.601 286.235,579.36 
	283.125,573.36 284.085,566.4 285.045,563.521 288.405,553.44 286.485,550.561 280.725,542.881 276.645,537.121 275.445,534.721 
	270.165,525.841 274.485,530.641 277.365,533.761 278.795,536.4 282.165,541.44 290.565,554.16 294.165,547.44 292.965,537.841 
	292.485,523.921 294.645,529.681 294.885,537.121 296.325,547.681 293.445,553.44 290.565,559.2 292.725,568.081 296.325,576.24 
	296.795,588.721 300.405,592.801 "/>
<polygon points="299.445,400.801 301.125,401.041 295.125,420.001 293.205,426.24 291.765,425.28 299.445,400.801 "/>
<polygon points="298.965,359.521 300.165,367.44 298.485,363.841 295.365,352.081 295.845,351.36 296.325,351.36 298.965,359.521 
	"/>
<polygon points="298.965,289.201 297.765,295.92 297.275,288.96 287.925,253.681 286.235,250.561 286.485,250.321 286.965,250.321 
	292.725,259.92 296.085,269.041 298.965,289.201 "/>
<polygon points="297.045,-30 297.765,-29.759 291.275,-13.919 290.795,-13.919 290.795,-12.239 286.725,-4.319 283.605,-1.199 
	277.125,13.681 276.885,10.801 281.205,-1.439 285.765,-5.759 286.965,-9.359 289.605,-12.959 292.725,-21.359 297.045,-30 "/>
<polygon points="295.845,342.961 292.965,342.48 293.445,340.801 288.645,326.881 287.925,326.16 289.845,324.961 295.845,342.961 
	"/>
<polygon points="292.485,-36 290.085,-30.239 283.125,-18.959 279.525,-13.679 264.405,16.321 266.085,17.041 261.045,46.561 
	269.205,35.761 265.605,41.761 262.485,48 262.005,50.161 260.325,50.161 259.125,57.121 259.605,47.041 260.085,40.801 
	260.795,40.321 262.725,31.681 262.965,25.681 261.765,16.081 261.045,-0.719 254.325,7.681 246.885,19.681 243.755,23.041 
	235.605,33.601 238.005,29.041 250.725,11.521 252.885,7.201 257.445,1.92 261.045,-4.08 259.125,-28.08 259.605,-23.52 262.235,-6 
	266.795,-13.439 266.325,-15.359 268.725,-30 272.795,-49.919 272.795,-52.319 274.965,-59.52 271.845,-69.119 269.685,-79.199 
	263.685,-98.879 256.235,-89.279 251.205,-81.839 234.885,-60.719 229.845,-53.279 224.565,-46.08 219.045,-39.359 219.275,-35.759 
	222.165,-21.6 229.365,-18.719 231.525,-16.56 225.755,-19.199 221.685,-18.239 216.645,-18.479 208.005,-15.839 212.565,-18.719 
	220.235,-22.56 217.845,-33.839 208.005,-34.799 198.885,-32.159 190.235,-27.839 197.205,-33.359 206.565,-35.279 207.525,-36.479 
	217.605,-34.799 216.165,-44.639 218.565,-42.239 231.275,-58.56 230.795,-60.719 231.525,-92.879 231.755,-104.399 
	233.925,-102.959 232.965,-61.919 246.885,-79.199 252.165,-85.439 254.565,-89.52 262.725,-100.56 261.275,-103.919 
	244.725,-80.159 242.325,-75.839 238.965,-72.959 242.085,-78.719 253.365,-95.52 260.325,-106.319 256.005,-118.799 
	262.965,-107.759 262.485,-105.839 275.685,-63.6 277.605,-88.799 279.275,-87.6 281.205,-108 282.165,-98.159 281.205,-85.199 
	279.045,-82.799 278.325,-65.279 277.125,-59.759 278.085,-54.959 275.925,-56.399 272.565,-39.839 270.405,-30.239 
	268.235,-15.119 268.965,-13.679 262.965,-3.359 264.405,10.321 271.845,-4.56 274.485,-9.359 276.885,-11.759 284.795,-25.679 
	288.405,-31.439 292.485,-36 "/>
<polygon points="290.085,430.081 291.275,437.041 287.685,451.921 279.045,469.44 273.525,486.961 269.925,492.961 268.235,502.561 
	267.765,514.801 269.445,522.48 266.795,537.36 261.765,537.36 259.125,548.4 255.755,558.48 254.795,557.761 255.525,554.641 
	243.275,542.881 247.125,553.2 249.275,558.24 251.205,562.561 247.605,558.24 232.965,518.641 213.755,535.921 221.445,558.48 
	225.755,569.28 228.405,574.081 229.605,578.881 227.685,576.001 222.645,566.641 217.605,552.721 212.795,538.081 203.445,552.001 
	200.085,554.641 203.685,548.641 207.525,542.641 214.965,530.16 220.235,525.841 224.565,521.761 234.405,514.801 240.885,503.521 
	246.165,497.28 251.685,492.001 247.605,498.24 242.795,504.001 234.405,516.961 242.085,539.521 256.005,552.48 260.085,535.2 
	265.125,534.961 267.765,524.641 266.085,516.48 264.165,499.681 276.645,469.681 277.845,467.521 284.795,454.801 289.365,435.841 
	286.485,434.4 286.485,424.561 276.885,421.44 276.885,427.44 274.725,421.2 266.085,421.921 262.005,420.24 260.085,420.48 
	254.565,418.801 245.685,417.841 240.645,428.881 244.005,441.841 241.365,443.28 241.365,445.921 234.405,456.24 230.565,460.32 
	226.235,468.721 217.845,478.32 194.085,510.24 191.685,510.48 194.085,517.921 194.085,527.041 192.405,551.041 192.885,546.961 
	192.405,527.521 192.165,517.44 190.725,514.801 189.765,510.48 186.165,498.001 187.845,490.561 186.885,488.16 190.235,488.4 
	191.205,509.521 203.685,493.681 216.165,478.081 220.235,474.48 225.275,467.28 229.365,459.36 233.925,454.801 239.925,444.961 
	241.365,440.4 238.725,431.761 241.605,419.521 238.235,419.521 242.085,417.121 244.235,412.081 244.235,405.121 249.525,399.841 
	256.235,397.44 253.365,399.36 245.925,406.801 245.445,415.2 257.445,416.641 260.085,418.081 262.725,418.32 265.605,419.521 
	268.235,418.561 274.485,418.561 270.165,398.4 266.325,384.001 268.005,383.041 269.925,393.121 274.725,408.721 276.405,418.561 
	286.235,421.681 287.205,410.16 283.845,397.44 283.845,393.841 284.565,385.681 285.525,389.761 286.485,399.36 288.405,402.721 
	290.565,425.761 288.885,426.721 289.365,432.001 290.085,430.081 "/>
<polygon points="292.965,-95.279 288.885,-98.879 286.005,-104.159 276.885,-119.279 276.885,-120 277.605,-120.239 
	284.325,-110.159 292.965,-95.279 "/>
<polygon points="290.565,262.801 288.645,271.44 285.525,279.121 286.965,271.92 289.605,262.801 290.565,262.801 "/>
<polygon points="288.165,63.121 288.885,70.081 282.165,58.801 286.235,41.041 287.925,41.041 284.325,57.601 288.165,63.121 "/>
<polygon points="286.005,-51.6 285.525,-49.919 278.565,-53.279 279.045,-54.959 286.005,-51.6 "/>
<path d="M281.925,275.041l3.84,19.92l-1.92-0.96l-1.44-11.76l-6.24,5.76v5.04l-1.68-2.64l-3.84-20.16l-12.48,10.32l2.4-2.4l8.4-10.8
	l1.44,0.96v-7.2l2.87,13.44l4.81-7.2l-1.68-7.92l0.48,0.24l2.88,7.44L281.925,275.041L281.925,275.041z M275.685,287.041l6-7.44
	l-3.12-9.36l-5.04,7.44L275.685,287.041L275.685,287.041z"/>
<polygon points="284.795,450.48 280.725,444.001 278.795,435.121 277.605,428.881 279.045,429.36 281.445,440.4 284.795,450.48 "/>
<polygon points="282.645,230.161 283.605,232.801 279.765,228.241 277.605,221.521 273.525,212.881 275.925,212.4 282.645,230.161 
	"/>
<polygon points="282.645,339.36 282.405,346.081 281.205,341.041 280.725,323.28 280.725,322.561 281.205,322.561 282.165,328.561 
	282.645,339.36 "/>
<polygon points="278.325,673.921 281.925,675.841 273.045,673.921 268.485,676.801 264.885,678.48 253.125,685.681 253.365,693.36 
	252.405,698.16 249.525,698.641 250.725,697.921 251.205,677.28 250.235,672.24 248.325,662.641 248.085,658.32 250.005,663.121 
	251.925,669.121 252.885,683.28 255.755,680.16 258.165,680.881 265.365,674.881 268.725,673.681 261.275,666.48 256.235,661.921 
	246.645,655.2 245.685,659.041 239.925,671.041 238.965,675.601 236.325,680.881 233.445,691.2 232.235,687.841 236.795,674.881 
	237.275,656.16 238.725,643.44 240.165,638.16 242.565,632.16 238.965,668.4 246.405,647.041 252.165,636.24 238.005,619.2 
	234.165,610.801 233.445,607.44 233.925,607.44 236.325,612.721 253.365,634.081 257.445,629.761 254.795,635.521 246.645,653.041 
	249.045,653.041 252.885,655.681 259.125,663.36 262.725,665.041 267.275,671.521 278.325,673.921 "/>
<polygon points="280.485,345.601 278.085,356.16 277.845,369.36 279.765,380.881 277.125,391.44 278.325,402.24 276.405,397.681 
	275.445,392.4 277.605,380.641 275.925,373.44 276.405,365.521 276.165,355.681 278.565,346.801 273.045,339.601 269.685,352.561 
	274.965,363.36 274.005,372.24 272.325,381.121 272.565,378.001 272.085,370.32 272.565,361.681 267.765,353.521 268.235,350.641 
	268.235,346.32 270.405,341.041 271.845,335.761 272.085,335.761 280.485,345.601 "/>
<polygon points="279.275,660.961 281.205,661.44 277.125,664.561 270.885,668.881 270.165,670.081 272.325,665.521 277.845,662.16 
	279.275,660.961 "/>
<path d="M277.125,231.361l-0.48,6l-1.44-3.6l-7.44-22.8l-7.92,19.2l1.2,16.08l-0.72,18.48l-8.4,7.44l-6.48,5.28l-0.24,0.72
	l-1.93,10.32l-1.19,10.8l1.44,6.24v6.24l-1.68-4.561l-1.68-7.199l2.88-25.2l-2.16-0.48v-1.44l-4.56,0.24l-6.48-0.48l-3.36,2.88
	l-3.84-0.24l-2.64,1.68l-1.92,0.24l-3.85,2.64l-5.03,3.84l2.4,8.64l-0.24,13.44l5.04,5.76l6.24,16.561l4.8-1.921l2.64-1.92
	l5.52,0.48l10.32-0.72l-7.2,2.64l-7.68-0.48l-2.88,1.921l-2.41,0.479l-3.11,2.4l-5.52-13.44l-2.4-4.8l-4.56-4.08l-2.64-22.08
	l-6.48,3.6l-6.72,8.4l-3.12,8.4l-6,5.04l-7.2,2.399l-2.16,2.4l-2.16,7.68l-3.36,10.08l10.8-5.04l4.56,1.44l-3.84,0.479
	l-20.64,10.561l-1.93,3.12l-0.95-4.32l1.2-27.84l-0.25-12.48l-3.59,5.76l-4.8,13.92l-2.4,6.721l0.48-6.721l8.16-21.359l-2.64,2.16
	l-6.73,1.199l5.77-4.319l7.68-27.84l-0.24-2.64l11.52-10.32l11.52-10.32l2.16-2.64l3.36-2.16l8.88-10.32l1.68-0.96l0.71-24.72
	l5.29-7.68l2.64-5.04l-0.72-7.44l5.04-3.6l0.96-6.72l0.96,12.96l1.2,6l-0.24,4.8l0.24,18.72l12.96-8.16l-3.85,5.28l-8.39,5.76
	l-0.48,2.4l-1.92,0.48l-11.52,8.64l-1.69,2.4l-1.67-0.48l-36,33.6l-7.2,27.84l4.8-3.36l13.44-8.16l2.4-1.2l-2.64,3.84l-9.36,5.52
	l-4.56,4.8l1.2,1.44l-0.72,41.28l6.96-4.32l0.48-2.88l3.35-8.88l2.41-7.92l5.28-5.76l5.28-0.24l5.04-4.32l3.12-8.64l7.68-8.88
	l6.48-4.08l-1.44-7.92l2.63,2.88l1.69,1.2l6.96-4.8l8.64-1.68l3.36-3.12l6.48,0.48l3.6-1.2l4.08,1.92l2.64,0.96l12-7.68v-28.32
	l1.44-12.96l4.08-9.6l1.68-4.32l1.91-1.2l-1.67-9.36l1.92,3.84l1.44,4.32l4.56,6.72l1.19,3.84l2.41,6.72L277.125,231.361
	L277.125,231.361z M214.235,220.321l-0.23-12.48l-0.25-15.84l-0.71-0.24l-4.56,6l-3.12,6.48l-3.84,4.56l0.96,16.8v4.56l8.88-4.56
	l0.96-2.64L214.235,220.321L214.235,220.321z M213.045,188.881v-4.56l-2.88,1.92l0.72,4.56L213.045,188.881L213.045,188.881z"/>
<polygon points="276.885,148.321 276.165,165.361 274.485,165.121 276.165,148.081 276.885,148.321 "/>
<polygon points="276.885,305.521 276.405,333.601 275.445,336.721 274.725,333.121 275.205,318.24 275.445,307.2 274.485,306.24 
	276.885,305.521 "/>
<polygon points="271.845,304.32 270.645,333.601 269.925,328.081 269.925,322.801 269.205,303.36 269.445,300.721 269.925,300.721 
	271.845,304.32 "/>
<polygon points="268.965,141.841 266.565,175.44 265.365,180.48 264.885,174.48 267.525,141.841 268.235,141.361 268.965,141.841 
	"/>
<polygon points="267.765,366.721 268.965,366.961 262.235,376.32 259.125,390.961 258.405,390.24 261.045,378.721 260.565,376.081 
	267.765,366.721 "/>
<polygon points="263.205,567.601 263.925,579.841 263.205,589.921 261.525,589.921 262.485,603.36 262.965,615.841 261.765,617.521 
	261.765,624.001 260.085,618.961 259.125,613.681 258.165,608.881 255.275,603.36 239.685,598.561 238.235,600.001 226.965,603.601 
	232.005,607.2 226.725,605.761 223.845,606.001 220.725,605.28 216.405,605.28 208.235,604.081 202.005,602.641 198.405,601.681 
	207.525,602.4 212.795,602.641 225.045,604.081 225.045,602.4 230.565,599.521 236.795,597.36 240.885,589.2 248.795,584.4 
	254.795,575.28 249.755,585.841 244.965,588.001 239.685,596.4 257.205,602.4 257.445,604.801 259.845,607.681 261.275,612.961 
	260.565,592.32 257.205,558.961 258.165,558.24 259.125,558.48 259.605,559.2 261.275,589.681 261.525,563.521 261.275,560.641 
	263.205,567.601 "/>
<polygon points="262.005,138.48 260.325,141.601 254.795,144.48 248.565,148.801 245.685,163.681 244.965,170.641 246.645,146.881 
	248.085,145.681 242.795,139.92 250.005,144.721 259.845,138.241 262.005,138.48 "/>
<polygon points="256.235,223.92 256.725,225.361 254.795,228 244.965,227.521 240.165,234.48 237.045,242.881 235.125,241.681 
	243.525,224.881 234.885,216.241 236.565,213.361 239.445,204.96 242.325,197.281 242.565,201.601 241.125,206.161 239.205,216.721 
	247.365,225.601 255.275,225.361 256.235,223.92 "/>
<polygon points="254.325,381.36 253.125,388.32 252.645,385.44 250.485,363.601 252.645,363.36 254.325,381.36 "/>
<polygon points="251.685,169.201 252.645,176.4 251.205,173.281 250.005,163.92 249.525,148.801 250.725,148.801 251.685,169.201 
	"/>
<polygon points="244.005,179.521 249.755,194.161 248.085,191.521 242.795,180.96 241.605,178.081 244.005,179.521 "/>
<polygon points="247.365,346.081 246.645,354.961 242.795,371.761 237.525,382.081 236.325,394.561 238.235,404.881 237.045,418.32 
	235.125,436.32 233.925,440.4 234.165,431.761 235.365,415.681 236.325,404.641 234.405,395.521 237.275,377.28 240.885,370.561 
	243.275,362.881 246.165,346.081 247.125,345.841 247.365,346.081 "/>
<polygon points="235.125,151.44 236.325,155.281 233.925,153.841 218.085,159.841 215.445,159.841 212.085,160.801 214.965,158.161 
	235.125,151.44 "/>
<polygon points="229.365,667.921 236.085,673.2 232.005,672.721 227.925,670.081 220.485,677.28 218.325,679.921 220.965,673.921 
	227.685,665.521 227.925,653.761 226.005,645.601 226.485,636.24 220.235,627.121 226.485,615.121 221.925,626.16 224.795,631.2 
	228.405,635.521 227.925,639.121 227.925,647.041 229.845,654.001 229.365,662.881 229.365,667.921 "/>
<polygon points="224.085,141.841 231.525,142.321 219.755,145.681 207.045,148.561 210.165,156.96 210.405,163.681 215.445,170.4 
	227.205,189.601 227.685,196.081 222.165,182.161 216.885,174.241 208.485,164.881 206.085,168.241 199.605,171.841 
	197.445,172.081 194.565,175.201 192.885,175.201 186.405,183.601 187.125,215.281 186.885,235.44 186.165,231.601 185.925,220.321 
	184.485,187.44 183.275,182.4 177.275,187.201 180.405,182.881 178.485,180.241 172.965,174.721 168.165,168.96 174.645,174.48 
	181.605,180.48 183.765,178.561 183.525,159.841 185.445,167.281 185.445,176.641 189.525,175.201 193.365,158.641 194.795,153.841 
	194.795,163.44 193.365,173.041 196.725,169.92 199.125,169.92 202.965,165.841 205.605,166.321 206.325,162.721 208.235,163.201 
	204.165,148.081 203.445,143.281 206.085,146.641 203.445,140.161 199.605,133.92 187.605,118.081 182.795,115.44 185.685,117.121 
	183.275,113.761 178.235,105.121 177.525,100.561 186.885,114 191.445,103.201 194.565,103.681 193.845,106.561 191.205,107.521 
	188.565,115.44 194.795,123.121 200.325,131.281 210.885,148.081 215.445,145.681 212.565,140.161 209.685,134.881 206.325,131.521 
	203.445,125.281 198.645,112.081 194.325,104.881 196.485,103.201 202.485,115.681 208.725,131.041 212.325,135.361 
	216.885,143.041 218.325,144 224.085,141.841 "/>
<polygon points="220.235,-94.08 225.275,-90.959 201.275,-97.439 191.925,-75.119 193.365,-72 191.445,-72 188.325,-60.719 
	180.405,-39.839 178.005,-35.04 174.405,-32.159 177.525,-38.639 180.405,-45.6 186.165,-59.52 187.605,-66.959 189.525,-73.679 
	185.925,-78 182.325,-82.08 173.445,-90.239 179.925,-85.919 183.525,-83.279 190.005,-76.319 198.405,-96 197.445,-98.639 
	172.005,-101.759 169.125,-103.919 172.485,-103.439 197.445,-100.56 198.165,-118.08 199.365,-108 199.365,-103.919 
	207.755,-118.799 206.085,-112.56 203.445,-106.319 201.045,-99.839 220.235,-94.08 "/>
<polygon points="221.925,490.801 222.645,509.28 221.205,504.721 220.485,489.36 220.005,487.921 220.235,487.2 221.685,487.2 
	221.925,490.801 "/>
<polygon points="218.325,696.001 220.485,698.4 216.405,696.001 208.005,682.081 208.235,681.121 208.965,681.121 218.325,696.001 
	"/>
<polygon points="219.275,222.96 219.525,226.561 210.405,243.601 208.235,250.081 206.565,252 200.565,258.241 203.205,254.641 
	204.885,251.041 207.045,247.92 208.235,242.881 213.525,233.761 218.085,223.681 218.565,222.96 219.275,222.96 "/>
<polygon points="211.365,391.44 214.485,393.121 187.125,402.001 177.045,408.721 166.725,414.961 154.005,427.2 149.205,430.081 
	153.275,425.521 165.045,413.761 181.365,403.921 188.565,399.36 193.365,396.721 211.365,391.44 "/>
<polygon points="207.275,418.801 209.685,418.801 201.275,423.601 196.235,429.121 193.365,436.081 193.845,460.32 203.205,467.521 
	196.005,482.641 190.235,487.921 194.795,481.2 201.275,470.881 191.685,460.561 191.925,457.44 191.205,440.4 194.795,427.681 
	197.445,425.28 199.845,422.16 207.275,418.801 "/>
<polygon points="204.165,261.601 204.405,271.92 202.965,268.321 204.165,261.601 "/>
<polygon points="203.925,359.761 199.605,365.521 165.045,383.041 167.685,400.081 165.525,394.801 162.165,376.801 
	161.925,373.681 159.045,373.681 163.125,367.921 167.445,362.641 161.925,362.641 159.045,364.32 158.795,360.721 155.685,352.32 
	155.205,348.721 161.205,360.48 169.845,360.001 171.755,357.841 181.125,350.16 186.645,344.881 187.605,345.841 175.605,356.16 
	169.365,363.601 163.125,371.041 164.565,379.681 171.525,375.36 203.205,361.921 203.925,359.761 "/>
<polygon points="199.845,151.92 197.685,152.641 185.685,147.121 183.765,152.161 188.085,150.241 182.795,154.801 178.005,169.92 
	176.325,170.161 179.685,156.721 172.235,160.321 167.205,161.521 158.085,165.121 152.565,166.081 163.845,160.801 
	164.325,157.201 164.565,152.4 166.485,159.841 181.125,153.361 183.275,145.92 178.965,142.081 179.205,142.321 183.045,143.761 
	187.125,145.201 189.525,146.881 192.645,147.121 199.845,151.92 "/>
<polygon points="192.405,143.761 188.565,142.081 183.765,140.641 163.125,135.361 153.045,130.561 147.755,126.96 148.245,125.521 
	154.005,129.361 173.685,136.321 184.235,139.201 192.405,143.761 "/>
<polygon points="176.795,200.881 174.885,204 169.365,210.721 169.605,218.881 167.925,212.881 154.725,227.281 150.885,231.361 
	153.525,226.081 167.445,210.241 160.485,188.881 158.565,180.96 159.275,180.96 168.405,208.801 171.755,206.4 176.795,200.881 "/>
<polygon points="178.005,484.801 174.645,486.001 175.605,484.801 159.525,463.681 157.845,462.48 159.045,461.041 178.005,484.801 
	"/>
<polygon points="175.605,115.201 169.845,110.641 163.365,106.321 160.965,119.041 152.325,121.681 148.725,121.92 155.205,119.521 
	159.275,117.601 161.685,105.601 152.565,98.641 150.405,97.44 155.925,99.361 164.085,103.92 171.275,100.801 166.725,105.601 
	171.525,110.161 175.605,115.201 "/>
<polygon points="167.445,-74.879 171.045,-66.239 170.325,-67.679 166.485,-73.919 167.445,-74.879 "/>
<polygon points="169.125,94.321 171.755,100.081 167.925,95.761 165.755,89.761 160.005,79.201 154.235,70.801 150.165,60.721 
	148.005,55.44 148.485,55.44 154.235,66.721 166.725,88.321 169.125,94.321 "/>
<polygon points="169.365,502.801 169.365,508.32 169.125,506.16 159.525,488.16 160.235,486.001 160.725,486.24 169.365,502.801 "/>
<polygon points="169.125,487.2 163.605,483.36 153.275,474.24 153.045,489.601 150.405,489.841 151.365,488.641 151.605,475.2 
	153.045,465.36 154.725,457.681 160.725,444.721 161.445,442.081 163.365,442.32 156.885,455.28 153.045,472.32 154.725,472.801 
	169.125,487.2 "/>
<polygon points="159.755,166.321 152.565,172.801 147.275,175.201 152.795,170.881 159.755,166.321 "/>
<polygon points="155.925,438.24 157.365,438.48 151.605,454.561 148.485,458.641 152.085,449.28 155.445,438.961 155.925,438.24 "/>
<polygon points="153.045,79.201 155.925,87.121 152.085,81.121 148.245,75.121 146.795,73.681 153.045,79.201 "/>
</svg>
